<?xml version="1.0" encoding="utf-8"?>
<!DOCTYPE svg PUBLIC "-//W3C//DTD SVG 1.1//EN" "http://www.w3.org/Graphics/SVG/1.1/DTD/svg11.dtd">
<svg version="1.1" xmlns="http://www.w3.org/2000/svg" xmlns:xlink="http://www.w3.org/1999/xlink"
	 width="80px" height="80px" viewBox="33.5 -30 80 80">
<symbol  id="ornament-1" viewBox="-11.478 -5.817 22.956 11.633">
	<path fill="#C6C6C6" d="M10.764-0.025C9.4,2.48,6.018,2.59,4.17,1.027C4.061,0.965,3.957,0.895,3.852,0.829
		C4.75,1.803,5.354,2.74,6.467,3.723c3.188,2.812,5.016-0.813,2.637-1.569c0.973-0.519,2.443,1.213,1.426,2.606
		C9.559,6.386,7.242,5.686,6.195,4.829C4.971,3.912,4.062,2.848,3.391,1.791c0.121,1.105-0.264,2.281-1.629,3.342
		C0.324,6.16-2.336,6.137-3.041,4.324C-3.926,3-2.9,1.164-1.799,1.27c0.076-0.015,0.146-0.046,0.227-0.046
		c0.701,0,1.27,0.568,1.27,1.27s-0.568,1.27-1.27,1.27c-0.303,0-0.57-0.12-0.789-0.298c0.559,1.015,1.985,1.736,3.391,0.527
		c1.828-1.574,1.486-3.936,0.064-5.306C-4.628-6.829-10.651-3.58-10.465,0.205c0.084,1.714,1.663,3.585,3.203,3.301
		c1.664-0.307,2.035-2.873,0.421-3.573c1.708,0.397,1.896,3.519-0.261,4.114c-2.099,0.58-4.13-1.557-4.351-3.764
		c-0.46-4.604,5.486-7.129,10.007-5.4C1.418-4.022,6.352-0.409,8.729-1.895c0.59-0.322,0.941-0.773,1.053-1.229
		C9.617-2.74,9.236-2.47,8.791-2.47c-0.594,0-1.076-0.482-1.076-1.076c0-0.596,0.482-1.076,1.076-1.076
		c1.869,0,2.066,2.296,0.559,3.502C7.795,0.121,5.506-0.443,4.082-1.275c-0.941-0.51-1.818-1.02-2.654-1.504
		c2.9,2.666,5.938,5.158,8.365,2.265c1.164-1.388,1.24-3.52-0.166-4.518C8.26-6.002,5.852-4.686,6.691-3.149
		C5.557-4.598,8.053-6.563,9.9-5.526C11.826-4.444,11.83-1.982,10.764-0.025z M9.824-3.329C9.811-3.268,9.811-3.203,9.787-3.146
		C9.801-3.207,9.818-3.268,9.824-3.329z"/>
</symbol>
<symbol  id="ornament-10" viewBox="-20.733 -20.722 41.466 41.442">
	
		<use xlink:href="#ornament-9"  width="40.345" height="40.164" x="-20.172" y="-20.082" transform="matrix(1 0 0 1 0.5605 0.6387)" overflow="visible"/>
	
		<use xlink:href="#ornament-9"  width="40.345" height="40.164" id="XMLID_3_" x="-20.172" y="-20.082" transform="matrix(2.244832e-11 -1 -1 -2.244832e-11 -0.6509 -0.5488)" overflow="visible"/>
</symbol>
<symbol  id="ornament-2" viewBox="-4.69 -3.91 9.38 7.821">
	<path fill="#C6C6C6" d="M3.598,3.903c-2.609-0.25-2.521-5.489-4.358-6.164c-1.767-0.648-3.22,1.164-2.461,2.705
		c0.525,1.036,1.818,0.978,2.286,0.265c-0.121,0.08-0.258,0.139-0.414,0.139c-0.424,0-0.766-0.344-0.768-0.769
		C-2.121-0.456-1.465-0.925-0.926-0.56C0.873,0.658-2.519,3.188-4.043,1c-1.578-2.055-0.171-5.269,3.188-4.878
		c1.523,0.177,1.891,1.031,2.328,2.944c1.273,5.575,2.985,4.931,3.068,3.72C4.411,3.027,4.164,3.198,3.871,3.198
		c-0.424,0-0.768-0.344-0.768-0.768c0-0.425,0.344-0.769,0.768-0.769c0.327,0,0.602,0.206,0.713,0.494c0-0.004,0-0.007,0-0.011
		C4.812,2.738,4.752,4.014,3.598,3.903z"/>
</symbol>
<symbol  id="ornament-3" viewBox="-6.568 -6.457 12.828 12.828">
	
		<use xlink:href="#ornament-2"  width="9.38" height="7.821" x="-4.69" y="-3.91" transform="matrix(1 0 0 1 -1.8779 2.4609)" overflow="visible"/>
	
		<use xlink:href="#ornament-2"  width="9.38" height="7.821" x="-4.69" y="-3.91" transform="matrix(2.244832e-11 1 1 -2.244832e-11 2.3506 -1.7676)" overflow="visible"/>
</symbol>
<symbol  id="ornament-4" viewBox="-6.488 -11.722 12.976 23.444">
	<g>
		<path fill="#C5C5C5" d="M4.121-2.83c0,0.594-0.482,1.076-1.076,1.076c-0.596,0-1.076-0.482-1.076-1.076
			c0-0.596,0.48-1.076,1.076-1.076C3.639-3.906,4.121-3.426,4.121-2.83z"/>
		<path fill="#C5C5C5" d="M1.445,2.708c-0.807-0.038-1.531-0.306-2.2-0.587c1.382,1.76,6.366,3.15,5.944,7.682
			c-0.103,1.098-0.895,1.682-1.697,1.682c-0.805,0-1.456-0.678-1.456-1.516c0-0.705,0.466-1.293,1.094-1.462
			C2.916,8.35,2.769,8.103,2.769,7.809c0-0.317,0.171-0.584,0.415-0.736c-0.045,0.014-0.09,0.029-0.139,0.029
			c-0.311,0-0.562-0.262-0.562-0.584c0-0.324,0.252-0.586,0.562-0.586c0.026,0,0.049,0.012,0.074,0.016
			c-0.35-0.35-2.57-1.41-4.005-2.669c1.388,2.196,2.767,5.337,1.054,7.16c-1.584,1.976-4.5,1.39-5.792,0.124
			c-1.659-1.627-0.992-5.365,2.542-4.084C-6.117,6.135-6.193,8.899-5.54,9.584c3.562,3.728,8.938-1.105,2.043-8.196
			c1.715,3.392,3.188,5.495,2.36,7.333c-0.581,1.246-2.09,1.377-2.854,0.832c-0.401-0.156-0.688-0.541-0.688-0.998
			c0-0.596,0.481-1.076,1.076-1.076c0.594,0,1.076,0.48,1.076,1.076c0,0.208-0.074,0.391-0.176,0.555
			c0.319-0.184,0.745-0.432,0.89-0.775C-0.809,5.959-5.763,0.788-6.12-3.229c-0.383-4.316,2.255-9.045,6.645-8.441
			c2.191,0.51,3.93,2.684,3.266,4.709C2.92-4.885-0.023-5.309-0.31-6.986c0.583,1.604,3.093,1.463,3.575-0.18
			c0.432-1.439-1.262-3.441-2.885-3.703c-3.379-0.547-6.054,3.826-5.164,7.336c0.611,2.406,3.194,4.73,6.263,4.887
			c1.859,0.094,4.069-1.121,4-2.713C5.404-3.127,3.766-4.258,2.287-3.641c1.148-1.109,3.91-0.244,4.18,2.172
			C6.769,1.234,3.812,2.82,1.445,2.708z M4.651,9.062C4.566,8.764,4.476,8.459,4.374,8.154C4.301,8.329,4.168,8.465,4.01,8.557
			C4.268,8.66,4.488,8.836,4.651,9.062z M3.605,6.938c0.097,0,0.188,0.025,0.273,0.057C3.794,6.836,3.706,6.68,3.604,6.529
			C3.6,6.723,3.501,6.885,3.358,6.988C3.438,6.963,3.518,6.938,3.605,6.938z"/>
	</g>
</symbol>
<symbol  id="ornament-5" viewBox="-1.152 -4.375 2.303 8.75">
	<path fill="#C6C6C6" d="M1.151-3.31C1.147-3.312,1.144-3.314,1.139-3.315C0.474-3.074,0.095-2.46,0.095-0.955
		c0,1.939,0.434,3.59,1.044,4.246c0.004-0.004,0.008-0.012,0.012-0.016v1.089C1.147,4.367,1.143,4.372,1.139,4.375
		C-0.012,3.506-1.152,1.51-1.152-1.057c0-2.488,2.291-2.251,2.291-3.318c0,0.031,0.008,0.059,0.012,0.088V-3.31z"/>
</symbol>
<symbol  id="ornament-6" viewBox="-4.388 -2.925 8.777 5.851">
	<path fill="#C6C6C6" d="M-0.435,2.704c-3.288,1.075-3.954-2.12-3.954-2.12c2.436,0.643,3.053-1.449,5.291-2.94
		c1.937-1.291,3.486,0.019,3.486,0.019C2.793-2.773,1.405,2.104-0.435,2.704z M-0.303-0.178c-0.758,0.996-1.264,1.509-2.812,1.455
		c0,0,0.604,1.354,2.349,0.698c1.214-0.456,2.247-3.27,3.592-4.173C1.524-2.105,0.411-1.114-0.303-0.178z"/>
</symbol>
<symbol  id="ornament-7" viewBox="-4.925 -3.771 9.85 7.543">
	
		<use xlink:href="#ornament-6"  width="8.777" height="5.851" x="-4.388" y="-2.925" transform="matrix(1 0 0 1 0.395 -0.8457)" overflow="visible"/>
	
		<use xlink:href="#ornament-6"  width="8.777" height="5.851" x="-4.388" y="-2.925" transform="matrix(0.4349 -0.4349 0.4349 0.4349 3.8184 0.6035)" overflow="visible"/>
	<path fill="#C6C6C6" d="M-4.923,3.771c0-0.004-0.002-0.008-0.002-0.012c0-0.701,0.568-1.27,1.27-1.27c0.701,0,1.27,0.568,1.27,1.27
		c0,0.004-0.002,0.008-0.002,0.012H-4.923z"/>
</symbol>
<symbol  id="ornament-8" viewBox="-1.195 -2.528 2.39 5.057">
	<path fill="#C6C6C6" d="M-1.167-0.984c0.449-2.09,2.362-1.452,2.362-1.452c-1.1,1.101-0.466,1.634-0.398,3.296
		c0.062,1.544-1.391,1.669-1.391,1.669C0.135,1.811-1.418,0.186-1.167-0.984z"/>
</symbol>
<symbol  id="ornament-9" viewBox="-20.172 -20.082 40.345 40.164">
	<path fill="#C6C6C6" d="M8.149,17.213c0,0.5-0.404,0.904-0.902,0.904c-0.5,0-0.904-0.404-0.904-0.904
		c0-0.498,0.404-0.902,0.904-0.902C7.745,16.311,8.149,16.715,8.149,17.213z"/>
	
		<use xlink:href="#ornament-3"  width="12.828" height="12.828" x="-6.568" y="-6.457" transform="matrix(1 0 0 1 2.2578 2.584)" overflow="visible"/>
	
		<use xlink:href="#ornament-4"  width="12.976" height="23.444" id="XMLID_14_" x="-6.488" y="-11.722" transform="matrix(1 0 0 1 13.6846 -1.0332)" overflow="visible"/>
	
		<use xlink:href="#ornament-7"  width="9.85" height="7.543" id="XMLID_11_" x="-4.925" y="-3.771" transform="matrix(1 0 0 1 13.6748 16.2188)" overflow="visible"/>
	
		<use xlink:href="#ornament-5"  width="2.303" height="8.75" id="XMLID_10_" x="-1.152" y="-4.375" transform="matrix(1 0 0 1 17.6299 -15.707)" overflow="visible"/>
	
		<use xlink:href="#ornament-8"  width="2.39" height="5.057" x="-1.195" y="-2.528" transform="matrix(1 0 0 1 -15.7803 17.3535)" overflow="visible"/>
	<path fill="#C6C6C6" d="M14.747-15.971c0.219,0.229,0.357,0.535,0.357,0.877c0,0.701-0.568,1.27-1.27,1.27
		c-0.342,0-0.648-0.139-0.877-0.357L14.747-15.971z"/>
	<path fill="#C6C6C6" d="M-18.383,17.16c0.22,0.229,0.358,0.535,0.358,0.877c0,0.701-0.569,1.27-1.27,1.27
		c-0.342,0-0.649-0.139-0.877-0.357L-18.383,17.16z"/>
	
		<use xlink:href="#ornament-1"  width="22.956" height="11.633" id="XMLID_9_" x="-11.478" y="-5.817" transform="matrix(1 0 0 1 -2.1631 14.2656)" overflow="visible"/>
</symbol>
<use xlink:href="#ornament-10"  width="41.466" height="41.442" id="XMLID_1_" x="-20.733" y="-20.722" transform="matrix(1 0 0 -1 54.042 -9.4155)" overflow="visible"/>
<use xlink:href="#ornament-10"  width="41.466" height="41.442" x="-20.733" y="-20.722" transform="matrix(-1 0 0 -1 92.9023 -9.4155)" overflow="visible"/>
<use xlink:href="#ornament-10"  width="41.466" height="41.442" x="-20.733" y="-20.722" transform="matrix(1 0 0 1 54.042 29.4287)" overflow="visible"/>
<use xlink:href="#ornament-10"  width="41.466" height="41.442" x="-20.733" y="-20.722" transform="matrix(-1 0 0 1 92.9023 29.4287)" overflow="visible"/>
</svg>
