<?xml version="1.0" encoding="utf-8"?>
<!-- Generator: Adobe Illustrator 14.0.0, SVG Export Plug-In  -->
<!DOCTYPE svg PUBLIC "-//W3C//DTD SVG 1.1//EN" "http://www.w3.org/Graphics/SVG/1.1/DTD/svg11.dtd" [
	<!ENTITY ns_flows "http://ns.adobe.com/Flows/1.0/">
]>
<svg version="1.1"
	 xmlns="http://www.w3.org/2000/svg" xmlns:xlink="http://www.w3.org/1999/xlink" xmlns:a="http://ns.adobe.com/AdobeSVGViewerExtensions/3.0/"
	 x="0px" y="0px" width="80px" height="80px" viewBox="0.027 0.012 80 80" enable-background="new 0.027 0.012 80 80"
	 xml:space="preserve">
<defs>
</defs>
<radialGradient id="SVGID_1_" cx="252.0264" cy="-48.0493" r="520.3287" gradientUnits="userSpaceOnUse">
	<stop  offset="0" style="stop-color:#005379"/>
	<stop  offset="0.1364" style="stop-color:#005076"/>
	<stop  offset="0.3113" style="stop-color:#00496D"/>
	<stop  offset="0.5072" style="stop-color:#003D5F"/>
	<stop  offset="0.7184" style="stop-color:#002E4C"/>
	<stop  offset="0.9396" style="stop-color:#091C37"/>
	<stop  offset="1" style="stop-color:#0A1731"/>
</radialGradient>
<rect display="none" fill="url(#SVGID_1_)" width="500" height="500"/>
<path fill="#C6C7C8" d="M50.655,10.684c-0.407-0.373-0.914-0.652-1.433-0.826c-0.539-0.181-1.094-0.177-1.65-0.093
	c-1.417,0.215-2.807,1.263-3.312,2.625c-0.267,0.717-0.287,1.18-0.281,1.932c0.004,0.623,0.263,1.507,0.55,2.059
	c-0.15-0.142-0.267-0.294-0.394-0.457c-0.376-0.474-1.485-1.39-1.794-2.728c-0.357-1.545-1.554-2.451-1.662-2.413
	c-0.252,0.086-0.439,0.27-0.575,0.504c-0.136-0.234-0.323-0.418-0.576-0.504c-0.108-0.038-1.305,0.868-1.662,2.413
	c-0.309,1.338-1.418,2.254-1.793,2.728c-0.128,0.162-0.245,0.315-0.395,0.457c0.287-0.552,0.545-1.437,0.55-2.059
	c0.006-0.752-0.014-1.215-0.28-1.932c-0.506-1.362-1.896-2.411-3.312-2.625c-0.557-0.083-1.112-0.087-1.651,0.093
	c-0.519,0.174-1.026,0.454-1.433,0.826c-0.834,0.768-1.199,1.932-0.546,2.973c0.344,0.546,0.889,0.874,1.523,0.976
	c0.458,0.076,1.067-0.154,1.138-0.634c0,0-0.407,0.706-1.244,0.436c-0.72-0.23-1.241-0.856-1.35-1.643
	c-0.071-0.518,0.151-1.017,0.48-1.407c0.742-0.881,1.839-1.239,2.941-0.933c0.679,0.187,3.395,1.747,2.559,4.203
	c-1.243,3.656-3.849,4.553-3.981,4.724c0.158-0.319,1.454-2.385,1.876-3.137c0.339-0.602,0.625-1.179,0.734-1.869
	c0.168-1.055-0.085-2.297-0.993-3.018c-1.095-0.87-2.026-0.259-2.091-0.228c-0.584,0.289-0.94,1.062-0.653,1.651
	c0.286,0.589,0.992,0.832,1.575,0.543c0.563-0.279,0.806-0.952,0.566-1.527c0.149,0.101,0.328,0.257,0.491,0.499
	c0.248,0.366,0.316,0.987,0.314,1.423c-0.006,1.442-0.914,2.583-1.57,3.805c-0.382,0.712-4.346,7.277-1.051,12.612
	c0.396,0.642,2.888,3.762,6.545,1.802c1.086-0.582,1.86-1.621,1.967-2.883c0.117-1.385-0.64-2.754-2.09-2.957
	c-0.659-0.094-1.385,0.068-1.903,0.506c-0.545,0.459-0.763,1.104-0.673,1.805c0.061,0.47,0.703-1.213,2.019-1.228
	c0.399-0.028,0.79,0.087,1.118,0.376c0.476,0.421,0.56,1.065,0.429,1.657c-0.761,3.414-5.48,2.005-6.652-0.05
	c-3.25-5.702,3.361-10.139,4.736-10.323c0.457-0.06,2.549-0.231,3.815,1.639c-0.12,0.242-0.219,0.502-0.288,0.786
	c-0.194,0.795-0.007,1.565,0.408,2.194c-0.409,0.484-1.023,0.934-1.673,0.876c0.32-0.103,0.758-0.691,0.758-1.033
	c0.002-2.114-2.605-1.49-2.436,0.064c0.075,0.676,0.662,1.212,1.319,1.376c0.702,0.175,1.347-0.05,1.929-0.458
	c0.163-0.115,0.488-0.352,0.507-0.333c0.019-0.02,0.344,0.217,0.507,0.333c0.583,0.408,1.227,0.633,1.929,0.458
	c0.658-0.164,1.244-0.7,1.319-1.376c0.17-1.554-2.438-2.178-2.436-0.064c0,0.342,0.438,0.93,0.757,1.033
	c-0.649,0.058-1.264-0.392-1.673-0.876c0.415-0.629,0.602-1.398,0.408-2.194c-0.069-0.284-0.168-0.544-0.289-0.786
	c1.266-1.87,3.358-1.699,3.815-1.639c1.375,0.184,7.986,4.621,4.736,10.323c-1.172,2.055-5.891,3.464-6.651,0.05
	c-0.132-0.591-0.047-1.236,0.429-1.657c0.328-0.29,0.718-0.404,1.117-0.376c1.316,0.015,1.958,1.697,2.019,1.228
	c0.089-0.701-0.128-1.346-0.674-1.805c-0.518-0.438-1.243-0.6-1.903-0.506c-1.45,0.203-2.206,1.572-2.089,2.957
	c0.107,1.263,0.881,2.301,1.967,2.883c3.656,1.96,6.148-1.161,6.544-1.802c3.295-5.335-0.668-11.9-1.05-12.612
	c-0.656-1.222-1.564-2.363-1.57-3.805c-0.002-0.436,0.066-1.058,0.314-1.423c0.163-0.241,0.341-0.398,0.491-0.499
	c-0.24,0.575,0.003,1.248,0.566,1.527c0.583,0.289,1.289,0.046,1.575-0.543c0.288-0.589-0.068-1.363-0.653-1.651
	c-0.064-0.031-0.996-0.642-2.09,0.228c-0.909,0.721-1.162,1.963-0.994,3.018c0.109,0.69,0.395,1.267,0.734,1.869
	c0.423,0.751,1.718,2.817,1.876,3.137c-0.133-0.171-2.739-1.068-3.981-4.724c-0.835-2.456,1.88-4.016,2.559-4.203
	c1.102-0.306,2.2,0.052,2.941,0.933c0.329,0.39,0.552,0.889,0.48,1.407c-0.108,0.786-0.63,1.413-1.35,1.643
	c-0.837,0.27-1.243-0.436-1.243-0.436c0.07,0.48,0.679,0.709,1.138,0.634c0.634-0.102,1.179-0.429,1.522-0.976
	C51.854,12.616,51.49,11.452,50.655,10.684z M40.104,21.594c0.475,0.255,0.447,0.903,0,1.118
	C39.657,22.497,39.628,21.849,40.104,21.594z M39.66,13.392c-0.292,0.849-0.873,1.57-1.563,2.13
	c-0.178,0.144-0.363,0.275-0.554,0.397c0.105-0.089,0.207-0.182,0.302-0.281c0.497-0.519,0.773-1.115,0.931-1.813
	c0.109-0.485,0.185-1.075,0.571-1.42c0.113-0.101,0.262-0.189,0.385-0.292C39.809,12.535,39.809,12.963,39.66,13.392z M42.664,15.92
	c-0.191-0.123-0.376-0.254-0.554-0.397c-0.69-0.561-1.271-1.282-1.563-2.13c-0.148-0.429-0.148-0.857-0.072-1.278
	c0.123,0.103,0.272,0.19,0.385,0.292c0.387,0.345,0.462,0.935,0.571,1.42c0.158,0.698,0.434,1.294,0.931,1.813
	C42.456,15.738,42.558,15.831,42.664,15.92z M47.831,19.985c-1.266-1.254-3.091-1.71-3.371-1.753
	c-1.499-0.23-3.292,0.239-4.331,1.491c-0.008-0.01-0.018-0.018-0.026-0.028c-0.009,0.01-0.018,0.018-0.026,0.028
	c-1.039-1.252-2.833-1.722-4.331-1.491c-0.28,0.043-2.104,0.499-3.371,1.753c1.02-1.618,3.1-2.055,3.632-2.33
	c1.022-0.529,2.073-1.006,2.895-1.842c0.48-0.488,0.92-1.061,1.201-1.698c0.28,0.637,0.721,1.21,1.201,1.698
	c0.821,0.835,1.872,1.313,2.894,1.842C44.73,17.931,46.811,18.368,47.831,19.985z"/>
<path fill="#C6C7C8" d="M10.699,29.384c-0.373,0.407-0.652,0.914-0.826,1.433c-0.181,0.539-0.177,1.094-0.093,1.65
	c0.214,1.417,1.263,2.806,2.625,3.312c0.717,0.267,1.18,0.286,1.933,0.28c0.623-0.004,1.507-0.263,2.059-0.55
	c-0.142,0.15-0.294,0.267-0.457,0.395c-0.474,0.376-1.39,1.485-2.728,1.794c-1.545,0.357-2.451,1.554-2.413,1.662
	c0.086,0.252,0.27,0.439,0.504,0.575c-0.234,0.136-0.418,0.323-0.504,0.575c-0.038,0.108,0.868,1.305,2.413,1.663
	c1.338,0.309,2.254,1.418,2.728,1.793c0.162,0.128,0.315,0.245,0.457,0.395c-0.552-0.287-1.437-0.546-2.059-0.55
	c-0.752-0.006-1.216,0.014-1.933,0.28c-1.362,0.506-2.411,1.896-2.625,3.312c-0.083,0.557-0.087,1.111,0.093,1.65
	c0.174,0.52,0.454,1.026,0.826,1.433c0.768,0.834,1.931,1.198,2.973,0.546c0.546-0.344,0.874-0.889,0.976-1.523
	c0.075-0.458-0.154-1.067-0.634-1.137c0,0,0.706,0.406,0.436,1.243c-0.23,0.72-0.856,1.241-1.643,1.35
	c-0.518,0.071-1.017-0.151-1.407-0.48c-0.881-0.742-1.239-1.839-0.933-2.941c0.187-0.679,1.747-3.395,4.202-2.559
	c3.657,1.242,4.553,3.849,4.725,3.981c-0.319-0.158-2.385-1.454-3.137-1.876c-0.602-0.339-1.179-0.625-1.869-0.734
	c-1.055-0.168-2.297,0.085-3.019,0.993c-0.869,1.095-0.259,2.026-0.228,2.09c0.289,0.584,1.062,0.941,1.651,0.653
	c0.589-0.286,0.832-0.992,0.543-1.575c-0.279-0.563-0.952-0.806-1.527-0.565c0.101-0.149,0.257-0.329,0.499-0.491
	c0.366-0.248,0.987-0.317,1.423-0.314c1.442,0.006,2.583,0.914,3.805,1.57c0.712,0.382,7.277,4.346,12.612,1.05
	c0.642-0.396,3.762-2.888,1.802-6.544c-0.582-1.086-1.62-1.86-2.883-1.968c-1.385-0.116-2.754,0.64-2.957,2.09
	c-0.094,0.66,0.067,1.385,0.505,1.903c0.458,0.545,1.104,0.763,1.804,0.673c0.47-0.061-1.213-0.703-1.227-2.019
	c-0.028-0.399,0.086-0.79,0.376-1.118c0.421-0.476,1.065-0.56,1.657-0.429c3.414,0.761,2.005,5.48-0.05,6.652
	c-5.702,3.25-10.139-3.361-10.322-4.736c-0.061-0.457-0.231-2.549,1.639-3.815c0.242,0.12,0.502,0.219,0.785,0.288
	c0.796,0.194,1.565,0.007,2.194-0.408c0.484,0.409,0.934,1.023,0.876,1.672c-0.103-0.319-0.691-0.757-1.033-0.757
	c-2.114-0.003-1.49,2.605,0.064,2.435c0.676-0.075,1.211-0.661,1.376-1.318c0.175-0.702-0.049-1.347-0.458-1.929
	c-0.115-0.163-0.352-0.488-0.333-0.507c-0.02-0.019,0.218-0.344,0.333-0.507c0.409-0.582,0.633-1.227,0.458-1.928
	c-0.165-0.658-0.7-1.244-1.376-1.319c-1.554-0.169-2.178,2.438-0.064,2.436c0.342,0,0.93-0.438,1.033-0.757
	c0.058,0.649-0.392,1.264-0.876,1.673c-0.629-0.416-1.398-0.602-2.194-0.408c-0.283,0.069-0.543,0.168-0.785,0.288
	c-1.87-1.266-1.699-3.358-1.639-3.814c0.184-1.375,4.621-7.986,10.322-4.736c2.055,1.172,3.464,5.891,0.05,6.652
	c-0.591,0.131-1.236,0.047-1.657-0.429c-0.29-0.328-0.404-0.718-0.376-1.117c0.014-1.316,1.697-1.958,1.227-2.019
	c-0.7-0.089-1.346,0.128-1.804,0.674c-0.438,0.518-0.6,1.244-0.505,1.903c0.202,1.45,1.572,2.207,2.957,2.09
	c1.263-0.107,2.301-0.881,2.883-1.967c1.96-3.657-1.161-6.148-1.802-6.544c-5.334-3.296-11.9,0.668-12.612,1.05
	c-1.222,0.656-2.363,1.564-3.805,1.57c-0.437,0.002-1.058-0.066-1.423-0.314c-0.242-0.163-0.398-0.341-0.499-0.491
	c0.575,0.24,1.248-0.003,1.527-0.566c0.288-0.583,0.046-1.289-0.543-1.575c-0.589-0.288-1.363,0.068-1.651,0.652
	c-0.031,0.064-0.642,0.996,0.228,2.091c0.721,0.909,1.963,1.162,3.019,0.994c0.69-0.109,1.267-0.396,1.869-0.734
	c0.751-0.423,2.817-1.718,3.137-1.876c-0.171,0.133-1.068,2.739-4.725,3.981c-2.456,0.835-4.015-1.88-4.202-2.559
	c-0.306-1.102,0.052-2.2,0.933-2.941c0.39-0.328,0.889-0.551,1.407-0.479c0.786,0.108,1.413,0.63,1.643,1.35
	c0.27,0.836-0.436,1.243-0.436,1.243c0.48-0.07,0.709-0.679,0.634-1.138c-0.102-0.634-0.429-1.179-0.976-1.523
	C12.63,28.186,11.467,28.55,10.699,29.384z M21.609,39.936c0.254-0.475,0.903-0.446,1.118,0
	C22.512,40.383,21.864,40.411,21.609,39.936z M13.407,40.379c0.849,0.292,1.57,0.873,2.131,1.563
	c0.144,0.177,0.275,0.363,0.397,0.553c-0.089-0.105-0.182-0.207-0.281-0.302c-0.519-0.497-1.115-0.773-1.813-0.931
	c-0.485-0.109-1.075-0.185-1.419-0.572c-0.101-0.112-0.189-0.262-0.292-0.385C12.55,40.23,12.979,40.23,13.407,40.379z
	 M15.935,37.376c-0.123,0.19-0.254,0.376-0.397,0.554c-0.561,0.69-1.282,1.271-2.131,1.563c-0.428,0.148-0.856,0.148-1.277,0.072
	c0.103-0.123,0.19-0.272,0.292-0.385c0.345-0.387,0.935-0.462,1.419-0.572c0.699-0.157,1.294-0.434,1.813-0.93
	C15.753,37.583,15.846,37.481,15.935,37.376z M20,32.209c-1.254,1.266-1.71,3.09-1.753,3.371c-0.23,1.499,0.239,3.292,1.491,4.331
	c-0.01,0.008-0.018,0.018-0.028,0.026c0.01,0.008,0.018,0.018,0.028,0.026c-1.252,1.039-1.722,2.833-1.491,4.331
	c0.043,0.28,0.499,2.104,1.753,3.371c-1.618-1.02-2.055-3.1-2.33-3.632c-0.529-1.022-1.006-2.073-1.842-2.895
	c-0.488-0.48-1.061-0.92-1.698-1.201c0.637-0.28,1.209-0.721,1.698-1.201c0.835-0.821,1.312-1.872,1.842-2.894
	C17.946,35.309,18.383,33.228,20,32.209z"/>
<path fill="#C6C7C8" d="M29.399,69.34c0.407,0.373,0.914,0.652,1.433,0.826c0.539,0.181,1.094,0.177,1.65,0.093
	c1.417-0.215,2.806-1.263,3.312-2.625c0.267-0.717,0.287-1.18,0.281-1.932c-0.004-0.623-0.263-1.507-0.549-2.059
	c0.149,0.142,0.266,0.294,0.394,0.457c0.375,0.474,1.485,1.389,1.793,2.728c0.357,1.546,1.555,2.451,1.662,2.413
	c0.252-0.086,0.439-0.27,0.576-0.504c0.136,0.234,0.323,0.418,0.575,0.504c0.108,0.038,1.305-0.867,1.663-2.413
	c0.309-1.339,1.418-2.254,1.793-2.728c0.128-0.162,0.244-0.315,0.395-0.457c-0.287,0.552-0.546,1.437-0.55,2.059
	c-0.006,0.752,0.014,1.215,0.28,1.932c0.506,1.362,1.896,2.411,3.312,2.625c0.557,0.083,1.112,0.087,1.65-0.093
	c0.52-0.174,1.026-0.454,1.433-0.826c0.834-0.767,1.198-1.931,0.546-2.972c-0.345-0.547-0.889-0.875-1.523-0.976
	c-0.458-0.075-1.067,0.154-1.138,0.634c0,0,0.406-0.706,1.244-0.436c0.72,0.229,1.241,0.856,1.35,1.642
	c0.071,0.518-0.151,1.017-0.48,1.407c-0.741,0.881-1.838,1.24-2.941,0.933c-0.679-0.187-3.394-1.747-2.559-4.202
	c1.243-3.657,3.849-4.553,3.981-4.725c-0.158,0.32-1.454,2.386-1.876,3.137c-0.34,0.603-0.625,1.179-0.734,1.869
	c-0.168,1.055,0.085,2.297,0.993,3.018c1.095,0.87,2.026,0.259,2.091,0.228c0.583-0.288,0.94-1.062,0.653-1.651
	c-0.286-0.589-0.993-0.832-1.575-0.543c-0.563,0.28-0.806,0.952-0.566,1.527c-0.149-0.1-0.328-0.257-0.491-0.499
	c-0.248-0.366-0.316-0.987-0.314-1.423c0.006-1.442,0.915-2.583,1.57-3.805c0.382-0.712,4.346-7.277,1.05-12.612
	c-0.396-0.642-2.888-3.762-6.544-1.802c-1.086,0.582-1.86,1.62-1.967,2.883c-0.116,1.385,0.64,2.754,2.09,2.957
	c0.66,0.094,1.385-0.068,1.903-0.505c0.545-0.459,0.762-1.104,0.673-1.805c-0.061-0.47-0.703,1.212-2.019,1.227
	c-0.399,0.028-0.79-0.086-1.117-0.376c-0.476-0.421-0.561-1.065-0.429-1.657c0.761-3.414,5.48-2.005,6.652,0.05
	c3.25,5.702-3.361,10.139-4.736,10.323c-0.457,0.06-2.548,0.23-3.814-1.639c0.12-0.242,0.219-0.502,0.288-0.786
	c0.194-0.795,0.008-1.565-0.407-2.194c0.409-0.484,1.023-0.934,1.672-0.875c-0.32,0.103-0.757,0.69-0.757,1.033
	c-0.002,2.114,2.605,1.49,2.436-0.064c-0.075-0.676-0.661-1.212-1.318-1.376c-0.702-0.175-1.347,0.05-1.929,0.459
	c-0.163,0.115-0.488,0.352-0.507,0.332c-0.019,0.02-0.345-0.217-0.507-0.332c-0.582-0.409-1.227-0.634-1.928-0.459
	c-0.658,0.165-1.244,0.7-1.319,1.376c-0.169,1.554,2.439,2.178,2.436,0.064c0-0.342-0.438-0.93-0.757-1.033
	c0.649-0.058,1.263,0.391,1.673,0.875c-0.416,0.629-0.602,1.398-0.408,2.194c0.069,0.284,0.168,0.544,0.288,0.786
	c-1.266,1.87-3.358,1.699-3.814,1.639c-1.375-0.184-7.986-4.621-4.736-10.323c1.171-2.055,5.891-3.464,6.651-0.05
	c0.131,0.591,0.046,1.236-0.429,1.657c-0.328,0.29-0.718,0.404-1.118,0.376c-1.315-0.015-1.958-1.697-2.019-1.227
	c-0.089,0.701,0.128,1.345,0.674,1.805c0.518,0.437,1.243,0.599,1.903,0.505c1.45-0.203,2.206-1.572,2.089-2.957
	c-0.107-1.263-0.881-2.301-1.967-2.883c-3.657-1.96-6.148,1.16-6.545,1.802c-3.295,5.335,0.668,11.9,1.051,12.612
	c0.655,1.222,1.564,2.363,1.57,3.805c0.002,0.437-0.066,1.058-0.314,1.423c-0.163,0.242-0.341,0.398-0.491,0.499
	c0.24-0.575-0.003-1.247-0.566-1.527c-0.583-0.288-1.289-0.046-1.575,0.543c-0.288,0.589,0.068,1.363,0.652,1.651
	c0.064,0.032,0.996,0.642,2.091-0.228c0.909-0.721,1.162-1.963,0.993-3.018c-0.109-0.69-0.395-1.267-0.734-1.869
	c-0.422-0.751-1.718-2.817-1.876-3.137c0.133,0.172,2.739,1.068,3.981,4.725c0.835,2.456-1.88,4.015-2.559,4.202
	c-1.102,0.307-2.2-0.052-2.941-0.933c-0.329-0.39-0.552-0.889-0.48-1.407c0.109-0.786,0.63-1.413,1.351-1.642
	c0.836-0.271,1.243,0.436,1.243,0.436c-0.07-0.48-0.679-0.709-1.138-0.634c-0.634,0.102-1.179,0.429-1.523,0.976
	C28.201,67.409,28.565,68.573,29.399,69.34z M39.951,58.43c-0.475-0.254-0.447-0.903,0-1.118
	C40.397,57.527,40.426,58.176,39.951,58.43z M40.394,66.632c0.292-0.849,0.874-1.57,1.563-2.13c0.177-0.144,0.363-0.275,0.554-0.397
	c-0.105,0.089-0.208,0.181-0.302,0.281c-0.496,0.519-0.773,1.115-0.93,1.813c-0.109,0.484-0.185,1.075-0.572,1.419
	c-0.113,0.101-0.262,0.188-0.385,0.292C40.246,67.489,40.246,67.061,40.394,66.632z M37.391,64.104
	c0.19,0.123,0.376,0.254,0.554,0.397c0.69,0.561,1.271,1.281,1.563,2.13c0.148,0.429,0.148,0.857,0.072,1.278
	c-0.123-0.103-0.272-0.19-0.385-0.292c-0.387-0.345-0.462-0.935-0.572-1.419c-0.157-0.699-0.434-1.294-0.931-1.813
	C37.599,64.286,37.497,64.194,37.391,64.104z M32.224,60.039c1.266,1.254,3.091,1.71,3.37,1.753c1.499,0.23,3.292-0.24,4.331-1.492
	c0.008,0.01,0.018,0.018,0.026,0.028c0.008-0.01,0.018-0.018,0.026-0.028c1.039,1.252,2.832,1.722,4.331,1.492
	c0.279-0.043,2.104-0.499,3.371-1.753c-1.02,1.618-3.1,2.055-3.632,2.33c-1.022,0.529-2.073,1.006-2.895,1.842
	c-0.48,0.488-0.92,1.061-1.201,1.698c-0.281-0.637-0.721-1.21-1.201-1.698c-0.821-0.835-1.872-1.313-2.894-1.842
	C35.324,62.094,33.243,61.657,32.224,60.039z"/>
<path fill="#C6C7C8" d="M69.355,50.64c0.373-0.407,0.652-0.914,0.827-1.433c0.181-0.539,0.177-1.094,0.093-1.65
	c-0.215-1.417-1.264-2.806-2.625-3.312c-0.717-0.267-1.18-0.286-1.932-0.28c-0.623,0.004-1.507,0.263-2.059,0.55
	c0.141-0.15,0.294-0.267,0.457-0.395c0.474-0.375,1.389-1.485,2.728-1.794c1.545-0.357,2.451-1.554,2.413-1.662
	c-0.086-0.252-0.27-0.439-0.504-0.575c0.234-0.136,0.418-0.323,0.504-0.575c0.038-0.108-0.868-1.305-2.413-1.663
	c-1.339-0.309-2.254-1.418-2.728-1.793c-0.163-0.128-0.315-0.244-0.457-0.395c0.552,0.287,1.437,0.546,2.059,0.55
	c0.752,0.006,1.215-0.014,1.932-0.28c1.362-0.506,2.411-1.896,2.625-3.312c0.083-0.557,0.088-1.112-0.093-1.65
	c-0.174-0.52-0.454-1.026-0.827-1.433c-0.767-0.834-1.931-1.199-2.972-0.546c-0.547,0.344-0.874,0.889-0.976,1.523
	c-0.075,0.458,0.154,1.067,0.634,1.137c0,0-0.706-0.406-0.436-1.243c0.23-0.72,0.856-1.241,1.643-1.35
	c0.518-0.071,1.017,0.151,1.407,0.48c0.881,0.742,1.24,1.839,0.933,2.941c-0.187,0.679-1.747,3.395-4.202,2.559
	c-3.657-1.242-4.554-3.848-4.725-3.981c0.32,0.158,2.385,1.454,3.137,1.876c0.603,0.339,1.179,0.625,1.869,0.734
	c1.055,0.168,2.297-0.085,3.018-0.993c0.87-1.095,0.259-2.026,0.228-2.09c-0.289-0.584-1.062-0.941-1.651-0.653
	c-0.589,0.286-0.832,0.992-0.543,1.575c0.279,0.563,0.952,0.806,1.527,0.565c-0.101,0.149-0.258,0.328-0.499,0.491
	c-0.366,0.248-0.987,0.316-1.423,0.314c-1.442-0.006-2.583-0.915-3.805-1.57c-0.712-0.382-7.277-4.346-12.612-1.05
	c-0.642,0.396-3.762,2.888-1.802,6.544c0.582,1.086,1.62,1.86,2.883,1.968c1.385,0.116,2.754-0.64,2.957-2.09
	c0.094-0.66-0.068-1.385-0.505-1.903c-0.459-0.545-1.104-0.763-1.805-0.673c-0.47,0.061,1.213,0.703,1.227,2.019
	c0.028,0.399-0.086,0.79-0.376,1.118c-0.421,0.476-1.065,0.561-1.657,0.429c-3.414-0.761-2.005-5.48,0.05-6.652
	c5.701-3.25,10.139,3.361,10.322,4.736c0.06,0.457,0.231,2.549-1.639,3.815c-0.242-0.12-0.502-0.219-0.786-0.288
	c-0.795-0.194-1.565-0.007-2.194,0.408c-0.484-0.409-0.934-1.023-0.876-1.672c0.103,0.319,0.691,0.757,1.033,0.757
	c2.114,0.003,1.49-2.605-0.064-2.435c-0.676,0.075-1.211,0.661-1.376,1.318c-0.175,0.702,0.05,1.347,0.458,1.928
	c0.115,0.163,0.352,0.489,0.333,0.508c0.02,0.019-0.218,0.344-0.333,0.507c-0.409,0.582-0.633,1.227-0.458,1.928
	c0.165,0.658,0.7,1.244,1.376,1.319c1.554,0.169,2.178-2.438,0.064-2.436c-0.342,0-0.931,0.438-1.033,0.757
	c-0.058-0.649,0.392-1.264,0.876-1.673c0.629,0.415,1.398,0.602,2.194,0.408c0.284-0.069,0.544-0.168,0.786-0.288
	c1.87,1.266,1.699,3.357,1.639,3.814c-0.184,1.375-4.621,7.986-10.322,4.736c-2.055-1.171-3.464-5.891-0.05-6.652
	c0.591-0.131,1.236-0.046,1.657,0.43c0.29,0.328,0.404,0.718,0.376,1.117c-0.014,1.316-1.697,1.958-1.227,2.019
	c0.701,0.089,1.346-0.128,1.805-0.674c0.438-0.518,0.599-1.244,0.505-1.903c-0.202-1.45-1.572-2.207-2.957-2.09
	c-1.263,0.107-2.301,0.881-2.883,1.967c-1.96,3.657,1.161,6.148,1.802,6.544c5.334,3.296,11.9-0.668,12.612-1.05
	c1.222-0.656,2.363-1.564,3.805-1.57c0.437-0.002,1.058,0.066,1.423,0.314c0.241,0.163,0.398,0.341,0.499,0.491
	c-0.575-0.24-1.248,0.003-1.527,0.566c-0.289,0.583-0.046,1.289,0.543,1.575c0.588,0.288,1.362-0.068,1.651-0.652
	c0.032-0.064,0.642-0.996-0.228-2.091c-0.721-0.909-1.963-1.162-3.018-0.994c-0.69,0.109-1.267,0.396-1.869,0.734
	c-0.751,0.423-2.817,1.718-3.137,1.876c0.171-0.133,1.068-2.739,4.725-3.981c2.455-0.835,4.015,1.88,4.202,2.559
	c0.307,1.102-0.052,2.2-0.933,2.941c-0.39,0.328-0.889,0.551-1.407,0.48c-0.786-0.109-1.413-0.63-1.643-1.351
	c-0.27-0.836,0.436-1.243,0.436-1.243c-0.48,0.07-0.709,0.679-0.634,1.138c0.102,0.634,0.429,1.179,0.976,1.523
	C67.424,51.838,68.588,51.475,69.355,50.64z M58.445,40.088c-0.254,0.475-0.902,0.446-1.118,0
	C57.542,39.642,58.191,39.613,58.445,40.088z M66.647,39.646c-0.849-0.293-1.57-0.874-2.13-1.564
	c-0.144-0.177-0.275-0.362-0.397-0.553c0.089,0.105,0.181,0.207,0.281,0.302c0.519,0.497,1.115,0.773,1.813,0.931
	c0.484,0.109,1.075,0.185,1.419,0.572c0.101,0.112,0.189,0.262,0.292,0.385C67.504,39.794,67.076,39.794,66.647,39.646z
	 M64.12,42.648c0.123-0.19,0.254-0.376,0.397-0.554c0.56-0.69,1.281-1.271,2.13-1.563c0.428-0.148,0.857-0.148,1.278-0.072
	c-0.103,0.123-0.19,0.272-0.292,0.385c-0.345,0.387-0.935,0.462-1.419,0.572c-0.699,0.157-1.294,0.434-1.813,0.93
	C64.301,42.441,64.209,42.542,64.12,42.648z M60.054,47.815c1.254-1.266,1.71-3.09,1.753-3.371c0.23-1.498-0.239-3.292-1.491-4.331
	c0.01-0.008,0.018-0.018,0.027-0.026c-0.009-0.008-0.018-0.018-0.027-0.026c1.252-1.039,1.722-2.833,1.491-4.331
	c-0.043-0.28-0.499-2.104-1.753-3.371c1.618,1.02,2.054,3.1,2.33,3.632c0.529,1.022,1.007,2.073,1.842,2.895
	c0.488,0.48,1.061,0.92,1.697,1.201c-0.637,0.28-1.209,0.721-1.697,1.201c-0.835,0.821-1.313,1.872-1.842,2.894
	C62.108,44.716,61.672,46.796,60.054,47.815z"/>
<path fill="#C6C7C8" d="M11.049,26.368c-0.345-0.547-0.889-0.875-1.523-0.976c-0.458-0.075-1.067,0.154-1.137,0.634
	c0,0,0.406-0.706,1.243-0.436c0.72,0.229,1.241,0.856,1.35,1.642c0.071,0.518-0.152,1.017-0.48,1.407
	c-0.741,0.881-1.838,1.24-2.941,0.933c-0.679-0.187-3.394-1.747-2.559-4.202c1.243-3.657,3.849-4.553,3.981-4.725
	c-0.158,0.32-1.454,2.386-1.876,3.137c-0.34,0.603-0.625,1.179-0.734,1.869c-0.168,1.055,0.085,2.297,0.993,3.018
	c1.095,0.87,2.026,0.259,2.09,0.228c0.584-0.288,0.941-1.062,0.653-1.651c-0.286-0.589-0.993-0.832-1.575-0.543
	c-0.563,0.28-0.806,0.952-0.566,1.527c-0.149-0.1-0.328-0.257-0.491-0.499c-0.248-0.366-0.316-0.987-0.314-1.423
	c0.006-1.442,0.915-2.583,1.57-3.805c0.382-0.712,4.346-7.277,1.05-12.612C9.388,9.249,6.896,6.128,3.24,8.088
	c-1.086,0.582-1.86,1.62-1.967,2.883c-0.116,1.385,0.64,2.754,2.09,2.957c0.66,0.094,1.385-0.068,1.903-0.505
	c0.545-0.459,0.763-1.104,0.673-1.805c-0.061-0.47-0.703,1.212-2.019,1.227c-0.398,0.028-0.789-0.086-1.117-0.376
	c-0.476-0.421-0.561-1.065-0.429-1.657c0.761-3.414,5.48-2.005,6.652,0.05c3.25,5.702-3.361,10.139-4.736,10.323
	c-0.457,0.06-2.548,0.23-3.814-1.639c0.12-0.242,0.219-0.502,0.288-0.786c0.194-0.795,0.007-1.565-0.408-2.194
	c0.409-0.484,1.024-0.934,1.673-0.875c-0.319,0.103-0.757,0.69-0.757,1.033c-0.002,2.114,2.605,1.49,2.436-0.064
	c-0.075-0.676-0.661-1.212-1.318-1.376c-0.702-0.175-1.347,0.05-1.929,0.459c-0.118,0.083-0.321,0.229-0.431,0.297v1.324
	c0.343,0.234,0.361,0.75,0,1.011v1.982c1.045,1.208,2.805,1.662,4.281,1.436c0.279-0.043,2.104-0.499,3.371-1.753
	c-1.02,1.618-3.1,2.055-3.632,2.33c-1.022,0.529-2.073,1.006-2.895,1.842c-0.439,0.447-0.844,0.965-1.125,1.538v3.101
	c0.127,0.179,0.29,0.32,0.499,0.392c0.108,0.038,1.305-0.867,1.663-2.413c0.309-1.339,1.418-2.254,1.793-2.728
	c0.128-0.162,0.244-0.315,0.395-0.457c-0.287,0.552-0.546,1.437-0.55,2.059c-0.006,0.752,0.014,1.215,0.28,1.932
	c0.506,1.362,1.896,2.411,3.312,2.625c0.557,0.083,1.112,0.087,1.65-0.093c0.52-0.174,1.026-0.454,1.433-0.826
	C11.337,28.573,11.701,27.409,11.049,26.368z M2.209,24.386c-0.496,0.519-0.773,1.115-0.93,1.813
	c-0.109,0.484-0.185,1.075-0.572,1.419c-0.113,0.101-0.262,0.188-0.385,0.292c-0.076-0.421-0.076-0.849,0.072-1.278
	c0.292-0.849,0.874-1.57,1.563-2.13c0.177-0.144,0.363-0.275,0.554-0.397C2.406,24.194,2.304,24.286,2.209,24.386z"/>
<path fill="#C6C7C8" d="M27.649,4.245c-0.717-0.267-1.18-0.286-1.932-0.28c-0.623,0.004-1.507,0.263-2.059,0.55
	c0.141-0.15,0.294-0.267,0.457-0.395c0.474-0.375,1.389-1.485,2.728-1.794c1.545-0.357,2.451-1.554,2.413-1.662
	c-0.086-0.252-0.27-0.439-0.504-0.575c0.04-0.023,0.076-0.05,0.113-0.076h-3.101c0.053,0.026,0.106,0.053,0.16,0.076
	c-0.637,0.28-1.209,0.721-1.697,1.201c-0.835,0.821-1.313,1.872-1.842,2.894c-0.275,0.532-0.712,2.612-2.33,3.632
	c1.254-1.266,1.71-3.09,1.753-3.371c0.23-1.498-0.239-3.292-1.491-4.331c0.01-0.008,0.018-0.018,0.027-0.026
	c-0.009-0.008-0.018-0.018-0.027-0.026c0.019-0.016,0.037-0.034,0.056-0.05H18.39c0.019,0.025,0.04,0.047,0.055,0.076
	c-0.254,0.475-0.902,0.446-1.118,0c0.014-0.029,0.034-0.051,0.051-0.076h-1.324c0.025,0.042,0.041,0.071,0.035,0.076
	c0.02,0.019-0.218,0.344-0.333,0.507c-0.409,0.582-0.633,1.227-0.458,1.928c0.165,0.658,0.7,1.244,1.376,1.319
	c1.554,0.169,2.178-2.438,0.064-2.436c-0.342,0-0.931,0.438-1.033,0.757c-0.058-0.649,0.392-1.264,0.876-1.673
	C17.21,0.907,17.98,1.094,18.775,0.9c0.284-0.069,0.544-0.168,0.786-0.288c1.87,1.266,1.699,3.357,1.639,3.814
	c-0.184,1.375-4.621,7.986-10.323,4.736c-2.055-1.171-3.464-5.891-0.05-6.652c0.591-0.131,1.236-0.046,1.657,0.43
	c0.29,0.328,0.404,0.718,0.376,1.117c-0.014,1.316-1.697,1.958-1.227,2.019c0.701,0.089,1.346-0.128,1.805-0.674
	c0.438-0.518,0.599-1.244,0.505-1.903c-0.202-1.45-1.572-2.207-2.957-2.09C9.723,1.517,8.685,2.291,8.103,3.377
	c-1.96,3.657,1.161,6.148,1.802,6.544c5.334,3.296,11.9-0.668,12.612-1.05c1.222-0.656,2.363-1.564,3.805-1.57
	c0.437-0.002,1.058,0.066,1.423,0.314c0.241,0.163,0.398,0.341,0.499,0.491c-0.575-0.24-1.248,0.003-1.527,0.566
	c-0.289,0.583-0.046,1.289,0.543,1.575c0.588,0.288,1.362-0.068,1.651-0.652c0.032-0.064,0.642-0.996-0.228-2.091
	c-0.721-0.909-1.963-1.162-3.018-0.994c-0.69,0.109-1.267,0.396-1.869,0.734C23.045,7.667,20.98,8.962,20.66,9.12
	c0.171-0.133,1.068-2.739,4.725-3.981c2.455-0.835,4.015,1.88,4.202,2.559c0.307,1.102-0.052,2.2-0.933,2.941
	c-0.39,0.328-0.889,0.551-1.407,0.48c-0.786-0.109-1.413-0.63-1.643-1.351c-0.27-0.836,0.436-1.243,0.436-1.243
	c-0.48,0.07-0.709,0.679-0.634,1.138c0.102,0.634,0.429,1.179,0.976,1.523c1.042,0.652,2.206,0.289,2.972-0.546
	c0.373-0.407,0.652-0.914,0.827-1.433c0.181-0.539,0.177-1.094,0.093-1.65C30.06,6.14,29.011,4.75,27.649,4.245z M24.517,2.095
	c0.56-0.69,1.281-1.271,2.13-1.563c0.428-0.148,0.857-0.148,1.278-0.072c-0.103,0.123-0.19,0.272-0.292,0.385
	c-0.345,0.387-0.935,0.462-1.419,0.572c-0.699,0.157-1.294,0.434-1.813,0.93c-0.1,0.095-0.192,0.196-0.281,0.302
	C24.242,2.458,24.374,2.272,24.517,2.095z"/>
<path fill="#C6C7C8" d="M69.068,1.257c-1.385-0.116-2.755,0.64-2.957,2.09c-0.094,0.66,0.068,1.385,0.506,1.903
	c0.458,0.545,1.104,0.763,1.804,0.673c0.47-0.061-1.213-0.703-1.227-2.019c-0.028-0.399,0.086-0.79,0.376-1.118
	c0.421-0.476,1.065-0.56,1.657-0.429c3.414,0.761,2.004,5.48-0.05,6.652c-5.702,3.25-10.139-3.361-10.322-4.736
	c-0.061-0.457-0.231-2.549,1.639-3.815c0.241,0.12,0.502,0.219,0.785,0.288c0.796,0.194,1.565,0.007,2.194-0.408
	c0.484,0.409,0.933,1.023,0.875,1.672c-0.103-0.319-0.69-0.757-1.033-0.757c-2.114-0.003-1.49,2.605,0.064,2.435
	c0.676-0.075,1.211-0.661,1.376-1.318c0.175-0.702-0.05-1.347-0.458-1.929C64.214,0.325,64.068,0.123,64,0.012h-1.324
	c-0.234,0.343-0.75,0.361-1.012,0h-1.981c-1.209,1.045-1.663,2.805-1.436,4.281c0.043,0.28,0.498,2.104,1.753,3.371
	c-1.618-1.02-2.055-3.1-2.33-3.632c-0.529-1.022-1.006-2.073-1.842-2.895c-0.447-0.439-0.965-0.844-1.538-1.125h-3.1
	c-0.179,0.127-0.32,0.29-0.392,0.499c-0.037,0.108,0.868,1.305,2.414,1.663c1.338,0.309,2.254,1.418,2.728,1.793
	c0.162,0.128,0.315,0.245,0.457,0.395c-0.553-0.287-1.437-0.546-2.059-0.55c-0.752-0.006-1.216,0.014-1.933,0.28
	c-1.362,0.506-2.41,1.896-2.625,3.312c-0.083,0.557-0.088,1.111,0.093,1.65c0.174,0.52,0.454,1.026,0.826,1.433
	c0.768,0.834,1.932,1.198,2.973,0.546c0.547-0.344,0.874-0.889,0.976-1.523c0.075-0.458-0.154-1.067-0.634-1.137
	c0,0,0.706,0.406,0.436,1.243c-0.23,0.72-0.857,1.241-1.643,1.35c-0.518,0.071-1.017-0.151-1.407-0.48
	c-0.881-0.742-1.24-1.839-0.934-2.941c0.187-0.679,1.747-3.395,4.203-2.559c3.656,1.242,4.553,3.849,4.725,3.981
	c-0.319-0.158-2.385-1.454-3.137-1.876c-0.603-0.339-1.179-0.625-1.869-0.734c-1.055-0.168-2.297,0.085-3.018,0.993
	c-0.87,1.095-0.259,2.026-0.228,2.09c0.289,0.584,1.062,0.941,1.651,0.653c0.59-0.286,0.832-0.992,0.544-1.575
	c-0.279-0.563-0.952-0.806-1.527-0.565c0.101-0.149,0.257-0.329,0.499-0.491c0.366-0.248,0.987-0.317,1.423-0.314
	c1.442,0.006,2.583,0.914,3.806,1.57c0.711,0.382,7.277,4.346,12.612,1.05c0.642-0.396,3.762-2.888,1.802-6.544
	C71.37,2.139,70.331,1.365,69.068,1.257z M55.654,2.194c-0.519-0.497-1.115-0.773-1.813-0.931c-0.485-0.109-1.075-0.185-1.419-0.572
	C52.32,0.58,52.232,0.43,52.129,0.307c0.42-0.076,0.849-0.076,1.277,0.073c0.849,0.292,1.57,0.873,2.131,1.563
	c0.144,0.177,0.274,0.363,0.397,0.553C55.845,2.391,55.753,2.289,55.654,2.194z"/>
<path fill="#C6C7C8" d="M80.027,25.748c-0.026,0.053-0.053,0.106-0.077,0.161c-0.28-0.637-0.721-1.21-1.201-1.698
	c-0.821-0.835-1.872-1.313-2.894-1.842c-0.532-0.275-2.613-0.712-3.632-2.33c1.266,1.254,3.091,1.71,3.371,1.753
	c1.499,0.23,3.292-0.24,4.331-1.492c0.008,0.01,0.018,0.018,0.026,0.028c0.009-0.01,0.018-0.018,0.026-0.028
	c0.016,0.02,0.034,0.037,0.05,0.056v-1.982c-0.025,0.019-0.047,0.04-0.077,0.056c-0.475-0.254-0.446-0.903,0-1.118
	c0.029,0.014,0.051,0.034,0.077,0.051v-1.324c-0.042,0.025-0.071,0.041-0.077,0.035c-0.019,0.02-0.345-0.217-0.507-0.332
	c-0.582-0.409-1.227-0.634-1.929-0.459c-0.658,0.165-1.244,0.7-1.319,1.376c-0.169,1.554,2.439,2.178,2.436,0.064
	c0-0.342-0.438-0.93-0.758-1.033c0.649-0.058,1.264,0.391,1.673,0.875c-0.415,0.629-0.602,1.398-0.408,2.194
	c0.07,0.284,0.169,0.544,0.289,0.786c-1.266,1.87-3.358,1.699-3.814,1.639c-1.375-0.184-7.986-4.621-4.736-10.323
	c1.172-2.055,5.891-3.464,6.652-0.05c0.131,0.591,0.046,1.236-0.429,1.657c-0.328,0.29-0.718,0.404-1.118,0.376
	c-1.315-0.015-1.958-1.697-2.019-1.227c-0.089,0.701,0.128,1.345,0.674,1.805c0.518,0.437,1.243,0.599,1.903,0.505
	c1.45-0.203,2.206-1.572,2.089-2.957c-0.107-1.263-0.881-2.301-1.967-2.883c-3.657-1.96-6.148,1.16-6.545,1.802
	c-3.295,5.335,0.668,11.9,1.051,12.612c0.655,1.222,1.563,2.363,1.57,3.805c0.002,0.437-0.066,1.058-0.314,1.423
	c-0.163,0.242-0.341,0.398-0.491,0.499c0.24-0.575-0.003-1.247-0.566-1.527c-0.583-0.288-1.29-0.046-1.575,0.543
	c-0.288,0.589,0.068,1.363,0.652,1.651c0.064,0.032,0.996,0.642,2.09-0.228c0.909-0.721,1.162-1.963,0.994-3.018
	c-0.109-0.69-0.395-1.267-0.734-1.869c-0.423-0.751-1.718-2.817-1.876-3.137c0.132,0.172,2.738,1.068,3.981,4.725
	c0.834,2.456-1.88,4.015-2.56,4.202c-1.102,0.307-2.2-0.052-2.94-0.933c-0.329-0.39-0.552-0.889-0.48-1.407
	c0.108-0.786,0.63-1.413,1.35-1.642c0.837-0.271,1.243,0.436,1.243,0.436c-0.07-0.48-0.679-0.709-1.138-0.634
	c-0.634,0.102-1.178,0.429-1.522,0.976c-0.653,1.041-0.289,2.205,0.546,2.972c0.407,0.373,0.913,0.652,1.433,0.826
	c0.539,0.181,1.093,0.177,1.65,0.093c1.417-0.215,2.807-1.263,3.312-2.625c0.267-0.717,0.287-1.18,0.28-1.932
	c-0.003-0.623-0.263-1.507-0.549-2.059c0.149,0.142,0.266,0.294,0.394,0.457c0.375,0.474,1.485,1.389,1.793,2.728
	c0.357,1.546,1.554,2.451,1.662,2.413c0.252-0.086,0.439-0.27,0.575-0.504c0.023,0.04,0.05,0.076,0.077,0.113V25.748z M79.58,27.91
	c-0.123-0.103-0.272-0.19-0.385-0.292c-0.387-0.345-0.463-0.935-0.572-1.419c-0.157-0.699-0.434-1.294-0.931-1.813
	c-0.094-0.1-0.196-0.192-0.302-0.281c0.191,0.123,0.376,0.254,0.554,0.397c0.69,0.561,1.271,1.281,1.563,2.13
	C79.656,27.061,79.656,27.489,79.58,27.91z"/>
<path fill="#C6C7C8" d="M7.315,53.717c-0.002-0.436,0.067-1.058,0.314-1.423c0.163-0.241,0.341-0.398,0.491-0.499
	c-0.24,0.575,0.003,1.248,0.566,1.527c0.583,0.289,1.289,0.046,1.575-0.543c0.288-0.589-0.068-1.363-0.653-1.651
	c-0.064-0.031-0.996-0.642-2.09,0.228c-0.909,0.721-1.162,1.963-0.994,3.018c0.109,0.69,0.395,1.267,0.734,1.869
	c0.423,0.751,1.718,2.817,1.876,3.137c-0.133-0.171-2.739-1.068-3.981-4.724c-0.835-2.456,1.88-4.016,2.559-4.203
	c1.102-0.306,2.2,0.052,2.941,0.933c0.329,0.39,0.552,0.889,0.48,1.407c-0.108,0.786-0.63,1.413-1.35,1.643
	c-0.837,0.27-1.243-0.436-1.243-0.436c0.07,0.48,0.679,0.709,1.138,0.634c0.634-0.102,1.179-0.429,1.523-0.976
	c0.652-1.041,0.289-2.205-0.546-2.973c-0.407-0.373-0.914-0.652-1.434-0.826c-0.539-0.181-1.093-0.177-1.65-0.093
	c-1.417,0.215-2.807,1.263-3.312,2.625c-0.267,0.717-0.286,1.18-0.281,1.932c0.004,0.623,0.263,1.507,0.55,2.059
	c-0.15-0.142-0.266-0.294-0.394-0.457c-0.376-0.474-1.485-1.39-1.794-2.728c-0.357-1.545-1.554-2.451-1.662-2.413
	c-0.252,0.086-0.439,0.27-0.575,0.504c-0.023-0.04-0.05-0.076-0.076-0.113v3.1c0.026-0.053,0.052-0.105,0.076-0.16
	c0.28,0.637,0.721,1.21,1.201,1.698c0.821,0.835,1.872,1.313,2.894,1.842c0.532,0.275,2.612,0.712,3.632,2.33
	c-1.266-1.254-3.09-1.71-3.371-1.753c-1.499-0.23-3.292,0.239-4.331,1.491c-0.008-0.01-0.018-0.018-0.026-0.028
	c-0.009,0.01-0.018,0.018-0.026,0.028c-0.016-0.02-0.034-0.037-0.05-0.056v1.981c0.025-0.018,0.047-0.04,0.076-0.055
	c0.475,0.255,0.446,0.903,0,1.118c-0.029-0.014-0.051-0.034-0.076-0.051v1.324c0.042-0.025,0.071-0.041,0.076-0.035
	c0.019-0.02,0.344,0.217,0.507,0.333c0.583,0.408,1.227,0.633,1.929,0.458c0.658-0.164,1.244-0.7,1.319-1.376
	c0.17-1.554-2.438-2.178-2.436-0.064c0,0.342,0.438,0.93,0.757,1.033c-0.649,0.058-1.264-0.392-1.673-0.876
	c0.415-0.629,0.602-1.398,0.408-2.194c-0.069-0.284-0.168-0.544-0.289-0.786c1.266-1.87,3.358-1.699,3.815-1.639
	c1.375,0.184,7.986,4.621,4.736,10.323c-1.171,2.055-5.891,3.464-6.652,0.05c-0.131-0.591-0.046-1.236,0.43-1.657
	c0.328-0.29,0.718-0.404,1.117-0.376c1.316,0.015,1.958,1.697,2.019,1.228c0.089-0.701-0.128-1.346-0.674-1.805
	c-0.518-0.438-1.244-0.6-1.903-0.506c-1.45,0.203-2.206,1.572-2.089,2.957c0.107,1.263,0.881,2.301,1.967,2.883
	c3.656,1.96,6.148-1.161,6.544-1.802c3.295-5.335-0.668-11.9-1.051-12.612C8.23,56.3,7.322,55.159,7.315,53.717z M2.11,55.522
	c-0.69-0.561-1.271-1.282-1.563-2.13c-0.148-0.429-0.148-0.857-0.072-1.278c0.123,0.103,0.272,0.19,0.385,0.292
	c0.387,0.345,0.462,0.935,0.571,1.42c0.157,0.698,0.434,1.294,0.931,1.813c0.095,0.1,0.196,0.192,0.302,0.281
	C2.473,55.797,2.287,55.666,2.11,55.522z"/>
<path fill="#C6C7C8" d="M10.986,78.767c1.385,0.116,2.754-0.64,2.957-2.09c0.094-0.66-0.068-1.385-0.505-1.903
	c-0.459-0.545-1.104-0.763-1.805-0.673c-0.47,0.061,1.213,0.703,1.227,2.019c0.028,0.399-0.086,0.79-0.376,1.118
	c-0.421,0.476-1.065,0.561-1.657,0.429c-3.414-0.761-2.005-5.48,0.05-6.652c5.702-3.25,10.139,3.361,10.323,4.736
	c0.06,0.457,0.231,2.549-1.639,3.815c-0.242-0.12-0.502-0.219-0.786-0.288c-0.795-0.194-1.565-0.007-2.194,0.408
	c-0.484-0.409-0.934-1.023-0.876-1.672c0.103,0.319,0.691,0.757,1.033,0.757c2.114,0.003,1.49-2.605-0.064-2.435
	c-0.676,0.075-1.211,0.661-1.376,1.318c-0.175,0.702,0.05,1.347,0.458,1.928c0.083,0.119,0.23,0.321,0.297,0.432h1.324
	c0.234-0.343,0.749-0.361,1.011,0h1.982c1.208-1.045,1.663-2.806,1.436-4.281c-0.043-0.28-0.499-2.104-1.753-3.371
	c1.618,1.02,2.054,3.1,2.33,3.632c0.529,1.022,1.007,2.073,1.842,2.895c0.447,0.439,0.965,0.844,1.538,1.125h3.101
	c0.179-0.128,0.32-0.29,0.392-0.499c0.038-0.108-0.868-1.305-2.413-1.663c-1.339-0.309-2.254-1.418-2.728-1.793
	c-0.163-0.128-0.315-0.244-0.457-0.395c0.552,0.287,1.437,0.546,2.059,0.55c0.752,0.006,1.215-0.014,1.932-0.28
	c1.362-0.506,2.411-1.896,2.625-3.312c0.083-0.557,0.088-1.112-0.093-1.65c-0.174-0.52-0.454-1.026-0.827-1.433
	c-0.767-0.834-1.931-1.199-2.972-0.546c-0.547,0.344-0.874,0.889-0.976,1.523c-0.075,0.458,0.154,1.067,0.634,1.137
	c0,0-0.706-0.406-0.436-1.243c0.23-0.72,0.856-1.241,1.643-1.35c0.518-0.071,1.017,0.151,1.407,0.48
	c0.881,0.742,1.24,1.839,0.933,2.941c-0.187,0.679-1.747,3.395-4.202,2.559c-3.657-1.242-4.554-3.848-4.725-3.981
	c0.32,0.158,2.385,1.454,3.137,1.876c0.603,0.339,1.179,0.625,1.869,0.734c1.055,0.168,2.297-0.085,3.018-0.993
	c0.87-1.095,0.259-2.026,0.228-2.09c-0.289-0.584-1.062-0.941-1.651-0.653c-0.589,0.286-0.832,0.992-0.543,1.575
	c0.279,0.563,0.952,0.806,1.527,0.565c-0.101,0.149-0.258,0.328-0.499,0.491c-0.366,0.248-0.987,0.316-1.423,0.314
	c-1.442-0.006-2.583-0.915-3.805-1.57c-0.712-0.382-7.277-4.346-12.612-1.05c-0.642,0.396-3.762,2.888-1.802,6.544
	C8.685,77.885,9.723,78.66,10.986,78.767z M24.401,77.83c0.519,0.497,1.115,0.773,1.813,0.931c0.484,0.109,1.075,0.185,1.419,0.572
	c0.101,0.112,0.189,0.262,0.292,0.385c-0.421,0.076-0.85,0.076-1.278-0.072c-0.849-0.293-1.57-0.874-2.13-1.564
	c-0.144-0.177-0.275-0.362-0.397-0.553C24.209,77.634,24.301,77.735,24.401,77.83z"/>
<path fill="#C6C7C8" d="M78.784,63.301c0.003-2.114-2.605-1.49-2.436,0.064c0.075,0.676,0.662,1.212,1.319,1.376
	c0.702,0.175,1.346-0.05,1.928-0.458c0.119-0.083,0.322-0.23,0.432-0.298v-1.323c-0.343-0.234-0.361-0.75,0-1.012v-1.981
	c-1.045-1.208-2.805-1.663-4.281-1.436c-0.28,0.043-2.104,0.499-3.371,1.753c1.02-1.618,3.101-2.055,3.632-2.33
	c1.022-0.529,2.073-1.006,2.894-1.842c0.44-0.447,0.845-0.965,1.125-1.538v-3.1c-0.128-0.179-0.291-0.321-0.5-0.392
	c-0.108-0.038-1.305,0.868-1.662,2.413c-0.309,1.338-1.418,2.254-1.793,2.728c-0.128,0.162-0.245,0.315-0.395,0.457
	c0.287-0.552,0.545-1.437,0.55-2.059c0.006-0.752-0.014-1.215-0.28-1.932c-0.506-1.362-1.896-2.411-3.312-2.625
	c-0.558-0.083-1.112-0.087-1.651,0.093c-0.519,0.174-1.026,0.454-1.433,0.826c-0.835,0.768-1.199,1.932-0.546,2.973
	c0.344,0.546,0.889,0.874,1.523,0.976c0.458,0.076,1.067-0.154,1.138-0.634c0,0-0.407,0.706-1.244,0.436
	c-0.72-0.23-1.241-0.856-1.35-1.643c-0.072-0.518,0.151-1.017,0.48-1.407c0.742-0.881,1.839-1.239,2.941-0.933
	c0.679,0.187,3.395,1.747,2.559,4.203c-1.243,3.656-3.849,4.553-3.981,4.724c0.157-0.319,1.454-2.385,1.876-3.137
	c0.339-0.602,0.625-1.179,0.734-1.869c0.168-1.055-0.085-2.297-0.994-3.018c-1.095-0.87-2.026-0.259-2.09-0.228
	c-0.584,0.289-0.941,1.062-0.653,1.651c0.286,0.589,0.992,0.832,1.575,0.543c0.563-0.279,0.806-0.952,0.566-1.527
	c0.149,0.101,0.328,0.257,0.491,0.499c0.248,0.366,0.316,0.987,0.314,1.423c-0.006,1.442-0.914,2.583-1.57,3.805
	c-0.382,0.712-4.346,7.277-1.051,12.612c0.396,0.642,2.888,3.762,6.544,1.802c1.086-0.582,1.86-1.621,1.967-2.883
	c0.117-1.385-0.64-2.754-2.09-2.957c-0.66-0.094-1.385,0.068-1.903,0.506c-0.545,0.459-0.763,1.104-0.673,1.805
	c0.061,0.47,0.703-1.213,2.019-1.228c0.399-0.028,0.79,0.087,1.117,0.376c0.476,0.421,0.561,1.065,0.43,1.657
	c-0.761,3.414-5.48,2.005-6.652-0.05c-3.25-5.702,3.36-10.139,4.736-10.323c0.457-0.06,2.549-0.231,3.814,1.639
	c-0.12,0.242-0.219,0.502-0.288,0.786c-0.194,0.795-0.007,1.565,0.408,2.194c-0.409,0.484-1.024,0.934-1.673,0.876
	C78.347,64.231,78.784,63.643,78.784,63.301z M77.845,55.639c0.496-0.519,0.773-1.115,0.931-1.813
	c0.109-0.485,0.185-1.075,0.571-1.42c0.113-0.101,0.262-0.189,0.385-0.292c0.077,0.42,0.077,0.849-0.072,1.278
	c-0.292,0.849-0.873,1.57-1.563,2.13c-0.177,0.144-0.363,0.275-0.553,0.397C77.649,55.831,77.75,55.738,77.845,55.639z"/>
<path fill="#C6C7C8" d="M52.405,75.78c0.717,0.267,1.18,0.286,1.933,0.28c0.623-0.004,1.506-0.263,2.059-0.55
	c-0.142,0.15-0.294,0.267-0.457,0.395c-0.474,0.376-1.39,1.485-2.728,1.794c-1.545,0.357-2.451,1.554-2.414,1.662
	c0.087,0.252,0.271,0.439,0.505,0.575c-0.04,0.023-0.076,0.05-0.113,0.076h3.1c-0.053-0.026-0.105-0.053-0.16-0.076
	c0.637-0.28,1.209-0.721,1.698-1.201c0.835-0.821,1.312-1.872,1.842-2.894c0.275-0.532,0.712-2.613,2.33-3.632
	c-1.255,1.266-1.71,3.09-1.753,3.371c-0.231,1.499,0.239,3.292,1.491,4.331c-0.01,0.008-0.019,0.018-0.028,0.026
	c0.009,0.008,0.018,0.018,0.028,0.026c-0.02,0.016-0.037,0.034-0.056,0.05h1.981c-0.018-0.025-0.04-0.047-0.055-0.076
	c0.254-0.475,0.903-0.446,1.118,0c-0.014,0.029-0.034,0.051-0.051,0.076H64c-0.025-0.042-0.041-0.071-0.035-0.076
	c-0.02-0.019,0.218-0.344,0.332-0.507c0.409-0.582,0.634-1.227,0.458-1.928c-0.165-0.658-0.7-1.244-1.376-1.319
	c-1.554-0.169-2.178,2.438-0.064,2.436c0.342,0,0.93-0.438,1.033-0.757c0.058,0.649-0.391,1.264-0.875,1.673
	c-0.629-0.416-1.398-0.602-2.194-0.408c-0.283,0.069-0.544,0.168-0.785,0.288c-1.87-1.266-1.699-3.358-1.639-3.814
	c0.184-1.375,4.621-7.986,10.322-4.736c2.055,1.172,3.464,5.891,0.05,6.652c-0.591,0.131-1.236,0.047-1.657-0.429
	c-0.29-0.328-0.404-0.718-0.376-1.117c0.014-1.316,1.697-1.958,1.227-2.019c-0.701-0.089-1.346,0.128-1.804,0.674
	c-0.438,0.518-0.6,1.244-0.506,1.903c0.202,1.45,1.572,2.207,2.957,2.09c1.263-0.107,2.301-0.881,2.883-1.967
	c1.96-3.657-1.16-6.148-1.802-6.544c-5.335-3.296-11.9,0.668-12.612,1.05c-1.222,0.656-2.363,1.564-3.806,1.57
	c-0.436,0.002-1.057-0.066-1.423-0.314c-0.242-0.163-0.398-0.341-0.499-0.491c0.575,0.24,1.248-0.003,1.527-0.566
	c0.288-0.583,0.046-1.289-0.544-1.575c-0.588-0.288-1.362,0.068-1.651,0.652c-0.031,0.064-0.642,0.996,0.228,2.091
	c0.721,0.909,1.962,1.162,3.018,0.994c0.69-0.109,1.267-0.396,1.869-0.734c0.751-0.423,2.817-1.718,3.137-1.876
	c-0.171,0.133-1.068,2.739-4.725,3.981c-2.456,0.835-4.016-1.88-4.203-2.559c-0.306-1.102,0.052-2.2,0.934-2.941
	c0.39-0.328,0.889-0.551,1.407-0.479c0.786,0.108,1.413,0.63,1.643,1.35c0.27,0.836-0.436,1.243-0.436,1.243
	c0.48-0.07,0.709-0.679,0.634-1.138c-0.102-0.634-0.429-1.179-0.976-1.523c-1.041-0.652-2.205-0.289-2.973,0.546
	c-0.373,0.407-0.652,0.914-0.826,1.433c-0.181,0.539-0.176,1.094-0.093,1.65C49.995,73.884,51.042,75.274,52.405,75.78z
	 M55.538,77.93c-0.561,0.69-1.282,1.271-2.131,1.563c-0.428,0.148-0.857,0.148-1.277,0.072c0.103-0.123,0.19-0.272,0.292-0.385
	c0.344-0.387,0.934-0.462,1.419-0.572c0.699-0.157,1.294-0.434,1.813-0.93c0.1-0.095,0.191-0.197,0.281-0.302
	C55.812,77.566,55.681,77.752,55.538,77.93z"/>
<path fill="#C6C7C8" d="M49.364,39.499c-1.081-0.508-2.115-0.724-3.287-0.417c-1.154,0.309-2.299,0.817-3.225,1.638
	c-0.971,0.862-1.724,1.951-2.132,3.229c-0.17,0.531-0.352,1.078-0.405,1.641c-0.024,0.286-0.098,0.79-0.288,1.133
	c-0.189-0.344-0.263-0.847-0.288-1.133c-0.053-0.563-0.233-1.109-0.404-1.641c-0.409-1.279-1.161-2.368-2.132-3.229
	c-0.926-0.82-2.071-1.329-3.226-1.638c-1.171-0.307-2.207-0.091-3.287,0.417c-0.036,0.015-0.157,0.07-0.125,0.102
	c0.042,0.038,0.134,0.071,0.433,0.157c0.366,0.113,1.205,0.338,2.177,1.524c0.178,0.219,0.339,0.455,0.484,0.701
	c0.003,0.004,0.003,0.009,0.007,0.014c0.128,0.223,0.251,0.452,0.373,0.683c0.009,0.015,0.016,0.029,0.023,0.042
	c0.26,0.515,0.506,1.05,0.799,1.544c1.015,1.716,3.249,2.801,5.167,2.914c1.659-0.138,4.153-1.197,5.168-2.914
	c0.292-0.494,0.539-1.029,0.799-1.544c0.007-0.013,0.014-0.027,0.023-0.042c0.12-0.23,0.244-0.459,0.372-0.683
	c0.003-0.004,0.004-0.009,0.008-0.014c0.144-0.246,0.306-0.482,0.484-0.701c0.972-1.186,1.81-1.411,2.177-1.524
	c0.299-0.085,0.391-0.119,0.433-0.157C49.522,39.569,49.402,39.514,49.364,39.499z M38.134,45.659
	c-0.515-0.21-0.924-0.702-1.253-1.151c-0.358-0.481-0.62-1.039-0.954-1.542c-0.388-0.574-0.847-1.092-1.314-1.589
	c-0.009-0.004-0.391-0.397-0.348-0.388c0.409,0.072,0.771,0.214,1.145,0.396c0.652,0.322,1.227,0.78,1.694,1.358
	c0.774,0.943,0.971,2.209,1.95,2.986c0.002,0.005,0.008,0.004,0.01,0.008C38.76,45.86,38.423,45.778,38.134,45.659z M45.443,41.377
	c-0.469,0.497-0.928,1.015-1.315,1.589c-0.334,0.502-0.596,1.06-0.955,1.542c-0.329,0.449-0.738,0.941-1.252,1.151
	c-0.29,0.119-0.626,0.201-0.93,0.08c0.002-0.004,0.008-0.003,0.01-0.008c0.979-0.777,1.175-2.043,1.95-2.986
	c0.467-0.578,1.042-1.036,1.694-1.358c0.374-0.182,0.736-0.325,1.145-0.396C45.833,40.98,45.451,41.373,45.443,41.377z"/>
<path fill="#C6C7C8" d="M35.486,34.939c0.189,0.16,0.628,0.505,0.903,1.455c0.05,0.175,0.085,0.356,0.11,0.538
	c0,0.003-0.001,0.007,0.001,0.011c0.019,0.164,0.034,0.333,0.047,0.499c0.002,0.011,0.002,0.021,0.003,0.031
	c0.023,0.37,0.034,0.75,0.082,1.117c0.188,1.446,1.284,2.482,2.451,3.112c0.034,0.019,0.305,0.084,0.139-0.03
	c-0.278-0.19-0.123-0.79-0.035-1.06c0.112-0.347,0.143-0.716,0.177-1.075c0.083-0.862-0.087-1.698-0.445-2.455
	c-0.34-0.721-0.89-1.312-1.496-1.789c-0.617-0.478-1.284-0.613-2.055-0.586c-0.025-0.001-0.111,0.001-0.1,0.028
	C35.286,34.77,35.331,34.813,35.486,34.939z M37.111,36.499c0.224,0.146,0.402,0.322,0.578,0.524
	c0.304,0.356,0.528,0.775,0.658,1.234c0.221,0.756,0.016,1.557,0.399,2.265c0,0.003,0.003,0.004,0.003,0.007
	c-0.21-0.004-0.389-0.139-0.53-0.282c-0.251-0.255-0.369-0.651-0.451-1.001c-0.089-0.376-0.104-0.772-0.175-1.154
	c-0.083-0.438-0.224-0.862-0.375-1.275C37.214,36.812,37.087,36.482,37.111,36.499z"/>
<path fill="#C6C7C8" d="M40.867,40.613c0.087,0.27,0.243,0.87-0.035,1.06c-0.167,0.114,0.105,0.048,0.14,0.03
	c1.166-0.63,2.263-1.667,2.451-3.112c0.048-0.367,0.059-0.747,0.082-1.117c0.001-0.01,0.001-0.021,0.003-0.031
	c0.013-0.167,0.028-0.335,0.047-0.499c0.002-0.003,0.001-0.008,0.001-0.011c0.023-0.182,0.06-0.363,0.11-0.538
	c0.275-0.95,0.715-1.295,0.903-1.455c0.157-0.126,0.201-0.169,0.217-0.203c0.011-0.027-0.075-0.029-0.101-0.028
	c-0.77-0.027-1.437,0.108-2.054,0.586c-0.606,0.477-1.156,1.068-1.497,1.789c-0.356,0.756-0.526,1.593-0.444,2.455
	C40.724,39.897,40.754,40.267,40.867,40.613z M41.307,40.522c0.384-0.708,0.178-1.509,0.399-2.265
	c0.13-0.459,0.354-0.878,0.66-1.234c0.176-0.203,0.354-0.379,0.578-0.524c0.024-0.016-0.103,0.313-0.107,0.319
	c-0.151,0.413-0.292,0.836-0.375,1.275c-0.07,0.382-0.085,0.778-0.175,1.154c-0.081,0.35-0.2,0.746-0.451,1.001
	c-0.141,0.144-0.32,0.278-0.53,0.282C41.304,40.526,41.308,40.526,41.307,40.522z"/>
<path fill="#C6C7C8" d="M3.894,0.012C3.526,0.228,3.175,0.474,2.852,0.76C1.881,1.622,1.128,2.71,0.72,3.99
	C0.55,4.521,0.368,5.067,0.315,5.63C0.291,5.916,0.217,6.419,0.027,6.763v0.455C1.686,7.081,4.18,6.021,5.195,4.304
	C5.487,3.811,5.733,3.276,5.994,2.76c0.007-0.013,0.014-0.027,0.023-0.042c0.119-0.23,0.244-0.46,0.372-0.683
	c0.003-0.004,0.005-0.01,0.008-0.014C6.541,1.776,6.703,1.54,6.881,1.321c0.613-0.748,1.172-1.112,1.594-1.309H3.894z M5.442,1.417
	C4.974,1.914,4.515,2.432,4.128,3.006c-0.334,0.502-0.597,1.06-0.955,1.541C2.844,4.997,2.435,5.489,1.92,5.699
	C1.631,5.818,1.294,5.9,0.991,5.779c0.002-0.004,0.007-0.003,0.01-0.008c0.979-0.777,1.175-2.043,1.95-2.987
	c0.467-0.578,1.042-1.036,1.694-1.358C5.019,1.244,5.381,1.101,5.79,1.029C5.833,1.021,5.451,1.413,5.442,1.417z"/>
<path fill="#C6C7C8" d="M2.029,0.012C1.975,0.113,1.912,0.208,1.834,0.288c-0.141,0.144-0.32,0.278-0.53,0.283
	c0-0.003,0.004-0.004,0.003-0.008C1.404,0.384,1.463,0.2,1.501,0.012H0.735c0.027,0.217,0.063,0.433,0.131,0.642
	c0.088,0.27,0.243,0.869-0.035,1.059c-0.166,0.114,0.106,0.049,0.14,0.03c0.753-0.406,1.476-0.984,1.944-1.73H2.029z"/>
<path fill="#C6C7C8" d="M80.027,6.763C80.027,6.763,80.027,6.763,80.027,6.763c-0.189-0.343-0.263-0.846-0.289-1.132
	c-0.053-0.563-0.233-1.109-0.405-1.641c-0.409-1.279-1.16-2.368-2.131-3.229c-0.323-0.287-0.674-0.533-1.042-0.748h-4.582
	C72,0.209,72.56,0.574,73.173,1.321c0.178,0.219,0.339,0.455,0.484,0.701c0.003,0.004,0.003,0.01,0.007,0.014
	c0.128,0.223,0.251,0.452,0.372,0.683c0.01,0.014,0.016,0.029,0.024,0.042c0.26,0.516,0.506,1.05,0.799,1.544
	c1.015,1.717,3.249,2.802,5.167,2.914c0,0,0,0,0,0V6.763z M78.134,5.699c-0.515-0.21-0.924-0.702-1.254-1.151
	c-0.357-0.481-0.62-1.039-0.953-1.541c-0.388-0.574-0.847-1.092-1.314-1.589c-0.009-0.004-0.391-0.396-0.348-0.388
	c0.409,0.071,0.771,0.214,1.145,0.396c0.652,0.323,1.227,0.78,1.694,1.358c0.774,0.943,0.971,2.21,1.95,2.987
	c0.002,0.005,0.008,0.004,0.01,0.008C78.76,5.9,78.423,5.818,78.134,5.699z"/>
<path fill="#C6C7C8" d="M79.223,1.713c-0.278-0.19-0.123-0.79-0.035-1.059c0.067-0.208,0.104-0.425,0.131-0.642h-0.767
	c0.039,0.188,0.098,0.372,0.194,0.55c0,0.003,0.003,0.004,0.003,0.008c-0.21-0.004-0.389-0.139-0.53-0.283
	c-0.078-0.079-0.14-0.175-0.195-0.275h-0.886c0.469,0.747,1.191,1.324,1.944,1.73C79.118,1.762,79.389,1.827,79.223,1.713z"/>
<path fill="#C6C7C8" d="M8.475,80.012c0.247-0.115,0.447-0.173,0.583-0.214c0.299-0.085,0.391-0.12,0.433-0.157
	c0.031-0.032-0.089-0.087-0.126-0.102c-1.081-0.509-2.115-0.725-3.287-0.417c-0.751,0.201-1.498,0.488-2.184,0.89H8.475z"/>
<path fill="#C6C7C8" d="M0.735,80.012h0.766c0.113-0.558,0.04-1.149,0.205-1.714c0.13-0.46,0.354-0.878,0.659-1.234
	c0.176-0.203,0.354-0.379,0.578-0.525c0.023-0.016-0.104,0.313-0.107,0.319c-0.151,0.413-0.292,0.836-0.375,1.275
	c-0.071,0.382-0.085,0.779-0.175,1.155c-0.056,0.241-0.133,0.501-0.256,0.725h0.886c0.258-0.41,0.439-0.869,0.506-1.381
	c0.048-0.367,0.059-0.747,0.082-1.117c0.001-0.01,0.001-0.021,0.003-0.031c0.013-0.167,0.028-0.335,0.047-0.5
	c0.002-0.003,0.001-0.008,0.001-0.011c0.023-0.182,0.06-0.363,0.11-0.538c0.275-0.95,0.715-1.295,0.902-1.456
	c0.157-0.125,0.202-0.169,0.218-0.203c0.01-0.026-0.075-0.028-0.102-0.027c-0.77-0.028-1.436,0.108-2.054,0.585
	c-0.605,0.477-1.155,1.068-1.497,1.789c-0.356,0.757-0.525,1.593-0.443,2.455C0.703,79.722,0.717,79.868,0.735,80.012z"/>
<path fill="#C6C7C8" d="M70.997,79.798c0.135,0.042,0.335,0.099,0.583,0.214h4.582c-0.686-0.401-1.432-0.689-2.185-0.89
	c-1.171-0.308-2.206-0.092-3.287,0.417c-0.036,0.015-0.157,0.069-0.125,0.102C70.606,79.678,70.698,79.712,70.997,79.798z"/>
<path fill="#C6C7C8" d="M75.486,74.979c0.189,0.16,0.628,0.506,0.903,1.456c0.05,0.175,0.085,0.356,0.11,0.538
	c0,0.003-0.001,0.007,0.001,0.011c0.019,0.164,0.034,0.333,0.047,0.5c0.002,0.01,0.002,0.021,0.003,0.031
	c0.023,0.37,0.034,0.75,0.082,1.117c0.067,0.512,0.249,0.972,0.506,1.381h0.886c-0.123-0.224-0.2-0.484-0.256-0.725
	c-0.089-0.376-0.104-0.772-0.175-1.155c-0.083-0.438-0.224-0.862-0.375-1.275c-0.004-0.005-0.131-0.335-0.107-0.319
	c0.224,0.146,0.402,0.322,0.578,0.525c0.304,0.356,0.528,0.774,0.658,1.234c0.166,0.565,0.093,1.156,0.206,1.714h0.767
	c0.018-0.145,0.032-0.29,0.046-0.433c0.082-0.862-0.087-1.698-0.445-2.455c-0.34-0.721-0.89-1.312-1.496-1.789
	c-0.618-0.478-1.284-0.613-2.055-0.585c-0.025-0.001-0.111,0.001-0.101,0.027C75.286,74.81,75.331,74.854,75.486,74.979z"/>
<path fill="#C6C7C8" d="M50.36,15.345c0.002,0.519,0.221,1.086,1.292,1.76c0.948,0.596,3.362,0.682,4.286,1.327
	c2.422,1.688,0.522,3.913-0.71,3.982c-1.886,0.107-2.028-1.316-1.914-1.751c0.19-0.722,1.463-1.378,1.797-0.557
	c-0.962-0.011-0.929,1.021-0.524,1.267c0.514,0.311,1.271,0.071,1.284-0.738c0.004-0.289-0.121-0.647-0.329-0.874
	c-1.151-1.26-2.652,0.093-2.812,1.256c-0.254,1.818,2.265,3.58,4.132,1.837c0.042-0.063,0.094-0.121,0.156-0.17
	c0.001-0.001,0.002-0.001,0.003-0.002c0-0.001,0-0.001,0.001-0.002c0.039-0.053,0.085-0.1,0.134-0.139
	c0.14-0.166,0.272-0.351,0.401-0.562c0.535-0.89,0.498-1.995-0.042-2.92c-0.459-0.789-1.047-1.468-2.167-1.719
	c-0.824-0.186-1.65-0.191-2.463-0.37C50.915,16.532,50.36,15.345,50.36,15.345z"/>
<path fill="#C6C7C8" d="M54.619,10.77c0.517-0.034,1.099,0.144,1.848,1.163c0.662,0.903,0.92,3.305,1.629,4.18
	c1.857,2.295,3.94,0.242,3.922-0.993c-0.028-1.889-1.458-1.929-1.883-1.784c-0.707,0.242-1.27,1.558-0.427,1.833
	c-0.081-0.959,0.953-1,1.226-0.613c0.347,0.49,0.162,1.263-0.644,1.333c-0.288,0.024-0.654-0.074-0.895-0.265
	c-1.339-1.058-0.097-2.652,1.052-2.896c1.796-0.382,3.733,2.004,2.128,3.991c-0.06,0.045-0.114,0.102-0.158,0.167
	c0,0.001-0.001,0.002-0.001,0.003c-0.001,0-0.002,0.001-0.002,0.001c-0.05,0.043-0.093,0.093-0.128,0.145
	c-0.156,0.151-0.331,0.296-0.532,0.44c-0.85,0.597-1.955,0.64-2.916,0.167c-0.819-0.402-1.54-0.94-1.87-2.039
	c-0.243-0.808-0.308-1.632-0.545-2.43C55.843,11.238,54.619,10.77,54.619,10.77z"/>
<path fill="#C6C7C8" d="M65.032,29.5c-0.519,0.016-1.094-0.182-1.805-1.228c-0.63-0.926-0.803-3.335-1.479-4.235
	c-1.774-2.36-3.93-0.382-3.955,0.853c-0.039,1.889,1.389,1.979,1.819,1.85c0.714-0.217,1.324-1.511,0.492-1.816
	c0.046,0.961-0.988,0.966-1.247,0.569c-0.33-0.502-0.118-1.268,0.691-1.31c0.288-0.014,0.651,0.098,0.885,0.297
	c1.301,1.105,0.002,2.654-1.154,2.856c-1.808,0.319-3.659-2.135-1.984-4.064c0.061-0.044,0.117-0.098,0.164-0.162
	c0.001-0.001,0.001-0.002,0.002-0.003c0.001,0,0.001,0,0.002-0.001c0.051-0.041,0.096-0.089,0.133-0.14
	c0.161-0.146,0.341-0.285,0.548-0.421c0.871-0.566,1.976-0.569,2.919-0.063c0.804,0.432,1.505,0.994,1.796,2.104
	c0.215,0.817,0.25,1.642,0.458,2.448C63.826,28.988,65.032,29.5,65.032,29.5z"/>
<path fill="#C6C7C8" d="M69.452,25.08c0.016-0.519-0.183-1.094-1.229-1.805c-0.926-0.629-3.336-0.802-4.236-1.479
	c-2.36-1.773-0.383-3.929,0.852-3.955c1.889-0.04,1.98,1.388,1.851,1.818c-0.217,0.714-1.511,1.324-1.816,0.492
	c0.961,0.046,0.966-0.988,0.569-1.247c-0.502-0.329-1.268-0.117-1.31,0.691c-0.014,0.289,0.098,0.651,0.297,0.885
	c1.105,1.3,2.654,0.001,2.855-1.155c0.318-1.808-2.136-3.659-4.064-1.983c-0.044,0.061-0.098,0.117-0.161,0.164
	c-0.001,0-0.002,0.001-0.004,0.002c0,0.001,0,0.001-0.001,0.002c-0.041,0.051-0.089,0.096-0.14,0.134
	c-0.146,0.161-0.284,0.341-0.42,0.548c-0.567,0.87-0.569,1.977-0.062,2.92c0.431,0.804,0.994,1.504,2.104,1.795
	c0.817,0.214,1.642,0.25,2.449,0.457C68.939,23.873,69.452,25.08,69.452,25.08z"/>
<path fill="#C6C7C8" d="M10.602,55.103c0.002,0.518,0.221,1.086,1.292,1.76c0.948,0.596,3.362,0.683,4.286,1.327
	c2.422,1.688,0.523,3.913-0.71,3.982c-1.886,0.107-2.028-1.317-1.914-1.751c0.19-0.722,1.463-1.378,1.797-0.557
	c-0.962-0.011-0.93,1.021-0.524,1.267c0.514,0.311,1.271,0.071,1.284-0.738c0.003-0.289-0.122-0.647-0.329-0.874
	c-1.151-1.26-2.652,0.093-2.813,1.256c-0.253,1.818,2.265,3.581,4.133,1.838c0.042-0.063,0.094-0.121,0.155-0.17
	c0.001-0.001,0.002-0.001,0.003-0.002c0-0.001,0-0.001,0.001-0.002c0.039-0.053,0.085-0.099,0.135-0.138
	c0.14-0.166,0.272-0.352,0.401-0.562c0.535-0.891,0.498-1.996-0.042-2.92c-0.459-0.789-1.047-1.468-2.167-1.719
	c-0.824-0.186-1.649-0.191-2.463-0.371C11.157,56.29,10.602,55.103,10.602,55.103z"/>
<path fill="#C6C7C8" d="M14.862,50.527c0.517-0.035,1.099,0.143,1.847,1.163c0.663,0.902,0.921,3.305,1.63,4.18
	c1.857,2.295,3.94,0.242,3.922-0.993c-0.028-1.889-1.458-1.929-1.883-1.784c-0.707,0.242-1.27,1.558-0.427,1.833
	c-0.081-0.959,0.952-1,1.226-0.613c0.347,0.491,0.162,1.263-0.644,1.333c-0.288,0.024-0.654-0.075-0.895-0.265
	c-1.339-1.058-0.097-2.652,1.052-2.896c1.796-0.382,3.733,2.004,2.128,3.991c-0.06,0.046-0.114,0.102-0.159,0.167
	c0,0.001,0,0.002-0.001,0.003c0,0-0.001,0.001-0.002,0.001c-0.049,0.043-0.093,0.093-0.128,0.145
	c-0.156,0.151-0.331,0.296-0.533,0.44c-0.85,0.597-1.955,0.64-2.916,0.167c-0.819-0.402-1.539-0.94-1.87-2.039
	c-0.243-0.808-0.308-1.632-0.544-2.43C16.086,50.996,14.862,50.527,14.862,50.527z"/>
<path fill="#C6C7C8" d="M25.274,69.258c-0.518,0.016-1.093-0.182-1.805-1.228c-0.63-0.926-0.802-3.335-1.479-4.235
	c-1.774-2.36-3.929-0.382-3.955,0.853c-0.039,1.889,1.389,1.979,1.819,1.849c0.714-0.216,1.324-1.511,0.492-1.815
	c0.046,0.961-0.988,0.965-1.247,0.569c-0.33-0.502-0.118-1.268,0.691-1.31c0.288-0.014,0.651,0.098,0.884,0.297
	c1.301,1.105,0.002,2.653-1.154,2.856c-1.808,0.319-3.659-2.135-1.984-4.064c0.061-0.044,0.117-0.098,0.164-0.162
	c0.001-0.001,0.001-0.002,0.002-0.003c0.001,0,0.001-0.001,0.002-0.001c0.052-0.041,0.096-0.089,0.134-0.14
	c0.161-0.146,0.341-0.285,0.547-0.421c0.871-0.566,1.977-0.569,2.92-0.063c0.804,0.432,1.504,0.994,1.796,2.104
	c0.215,0.816,0.25,1.642,0.458,2.448C24.068,68.746,25.274,69.258,25.274,69.258z"/>
<path fill="#C6C7C8" d="M29.694,64.837c0.016-0.519-0.183-1.094-1.229-1.805c-0.926-0.629-3.335-0.802-4.236-1.479
	c-2.36-1.773-0.383-3.929,0.851-3.955c1.889-0.041,1.98,1.388,1.851,1.818c-0.217,0.715-1.511,1.325-1.816,0.492
	c0.961,0.046,0.965-0.988,0.569-1.247c-0.503-0.329-1.268-0.117-1.31,0.691c-0.014,0.288,0.098,0.651,0.297,0.884
	c1.105,1.301,2.654,0.002,2.856-1.155c0.318-1.808-2.136-3.659-4.064-1.983c-0.044,0.061-0.098,0.117-0.162,0.164
	c-0.001,0-0.002,0.001-0.003,0.002c0,0-0.001,0.001-0.001,0.002c-0.041,0.051-0.089,0.096-0.14,0.133
	c-0.146,0.161-0.285,0.341-0.421,0.548c-0.566,0.87-0.569,1.977-0.062,2.919c0.431,0.804,0.994,1.504,2.104,1.795
	c0.817,0.215,1.642,0.25,2.448,0.458C29.182,63.631,29.694,64.837,29.694,64.837z"/>
<path fill="#C6C7C8" d="M10.602,24.922c0.002-0.518,0.221-1.086,1.292-1.76c0.948-0.596,3.362-0.683,4.286-1.327
	c2.422-1.688,0.523-3.913-0.71-3.982c-1.886-0.107-2.028,1.317-1.914,1.751c0.19,0.722,1.463,1.378,1.797,0.557
	c-0.962,0.011-0.93-1.021-0.524-1.267c0.514-0.311,1.271-0.071,1.284,0.738c0.003,0.289-0.122,0.647-0.329,0.874
	c-1.151,1.26-2.652-0.093-2.813-1.256c-0.253-1.818,2.265-3.581,4.133-1.838c0.042,0.063,0.094,0.121,0.155,0.17
	c0.001,0.001,0.002,0.001,0.003,0.002c0,0.001,0,0.001,0.001,0.002c0.039,0.053,0.085,0.099,0.135,0.138
	c0.14,0.166,0.272,0.352,0.401,0.562c0.535,0.891,0.498,1.996-0.042,2.92c-0.459,0.789-1.047,1.468-2.167,1.719
	c-0.824,0.186-1.649,0.191-2.463,0.371C11.157,23.734,10.602,24.922,10.602,24.922z"/>
<path fill="#C6C7C8" d="M14.862,29.497c0.517,0.035,1.099-0.143,1.847-1.163c0.663-0.902,0.921-3.305,1.63-4.18
	c1.857-2.295,3.94-0.242,3.922,0.993c-0.028,1.889-1.458,1.929-1.883,1.784c-0.707-0.242-1.27-1.558-0.427-1.833
	c-0.081,0.959,0.952,1,1.226,0.613c0.347-0.491,0.162-1.263-0.644-1.333c-0.288-0.024-0.654,0.075-0.895,0.265
	c-1.339,1.058-0.097,2.652,1.052,2.896c1.796,0.382,3.733-2.004,2.128-3.991c-0.06-0.046-0.114-0.102-0.159-0.167
	c0-0.001,0-0.002-0.001-0.003c0,0-0.001-0.001-0.002-0.001c-0.049-0.043-0.093-0.093-0.128-0.145
	c-0.156-0.151-0.331-0.296-0.533-0.44c-0.85-0.597-1.955-0.64-2.916-0.167c-0.819,0.402-1.539,0.94-1.87,2.039
	c-0.243,0.808-0.308,1.632-0.544,2.43C16.086,29.028,14.862,29.497,14.862,29.497z"/>
<path fill="#C6C7C8" d="M25.274,10.767c-0.518-0.016-1.093,0.182-1.805,1.228c-0.63,0.926-0.802,3.335-1.479,4.235
	c-1.774,2.36-3.929,0.382-3.955-0.853c-0.039-1.889,1.389-1.979,1.819-1.849c0.714,0.216,1.324,1.511,0.492,1.815
	c0.046-0.961-0.988-0.965-1.247-0.569c-0.33,0.502-0.118,1.268,0.691,1.31c0.288,0.014,0.651-0.098,0.884-0.297
	c1.301-1.105,0.002-2.653-1.154-2.856c-1.808-0.319-3.659,2.135-1.984,4.064c0.061,0.044,0.117,0.098,0.164,0.162
	c0.001,0.001,0.001,0.002,0.002,0.003c0.001,0,0.001,0.001,0.002,0.001c0.052,0.041,0.096,0.089,0.134,0.14
	c0.161,0.146,0.341,0.285,0.547,0.421c0.871,0.566,1.977,0.569,2.92,0.063c0.804-0.432,1.504-0.994,1.796-2.104
	c0.215-0.816,0.25-1.642,0.458-2.448C24.068,11.279,25.274,10.767,25.274,10.767z"/>
<path fill="#C6C7C8" d="M29.694,15.187c0.016,0.519-0.183,1.094-1.229,1.805c-0.926,0.629-3.335,0.802-4.236,1.479
	c-2.36,1.773-0.383,3.929,0.851,3.955c1.889,0.041,1.98-1.388,1.851-1.818c-0.217-0.715-1.511-1.325-1.816-0.492
	c0.961-0.046,0.965,0.988,0.569,1.247c-0.503,0.329-1.268,0.117-1.31-0.691c-0.014-0.288,0.098-0.651,0.297-0.884
	c1.105-1.301,2.654-0.002,2.856,1.155c0.318,1.808-2.136,3.659-4.064,1.983c-0.044-0.061-0.098-0.117-0.162-0.164
	c-0.001,0-0.002-0.001-0.003-0.002c0,0-0.001-0.001-0.001-0.002c-0.041-0.051-0.089-0.096-0.14-0.133
	c-0.146-0.161-0.285-0.341-0.421-0.548c-0.566-0.87-0.569-1.977-0.062-2.919c0.431-0.804,0.994-1.504,2.104-1.795
	c0.817-0.215,1.642-0.25,2.448-0.458C29.182,16.394,29.694,15.187,29.694,15.187z"/>
<path fill="#C6C7C8" d="M50.36,64.68c0.002-0.518,0.221-1.086,1.292-1.76c0.948-0.596,3.362-0.682,4.286-1.327
	c2.422-1.688,0.522-3.913-0.71-3.982c-1.886-0.107-2.028,1.317-1.914,1.751c0.19,0.722,1.463,1.378,1.797,0.557
	c-0.962,0.011-0.929-1.021-0.524-1.267c0.514-0.311,1.271-0.071,1.284,0.738c0.004,0.289-0.121,0.647-0.329,0.874
	c-1.151,1.26-2.652-0.093-2.812-1.256c-0.254-1.818,2.265-3.581,4.132-1.837c0.042,0.063,0.094,0.121,0.156,0.17
	c0.001,0.001,0.002,0.001,0.003,0.002c0,0.001,0,0.001,0.001,0.002c0.039,0.053,0.085,0.099,0.134,0.138
	c0.14,0.166,0.272,0.352,0.401,0.562c0.535,0.89,0.498,1.995-0.042,2.92c-0.459,0.789-1.047,1.468-2.167,1.719
	c-0.824,0.186-1.65,0.191-2.463,0.37C50.915,63.492,50.36,64.68,50.36,64.68z"/>
<path fill="#C6C7C8" d="M54.619,69.255c0.517,0.034,1.099-0.143,1.848-1.163c0.662-0.902,0.92-3.305,1.629-4.18
	c1.857-2.295,3.94-0.242,3.922,0.993c-0.028,1.889-1.458,1.929-1.883,1.784c-0.707-0.243-1.27-1.558-0.427-1.833
	c-0.081,0.959,0.953,1,1.226,0.613c0.347-0.491,0.162-1.263-0.644-1.333c-0.288-0.024-0.654,0.074-0.895,0.265
	c-1.339,1.058-0.097,2.652,1.052,2.896c1.796,0.382,3.733-2.004,2.128-3.991c-0.06-0.046-0.114-0.102-0.158-0.167
	c0-0.001-0.001-0.002-0.001-0.004c-0.001,0-0.002,0-0.002,0c-0.05-0.043-0.093-0.093-0.128-0.145
	c-0.156-0.151-0.331-0.296-0.532-0.439c-0.85-0.597-1.955-0.64-2.916-0.167c-0.819,0.402-1.54,0.939-1.87,2.039
	c-0.243,0.808-0.308,1.632-0.545,2.43C55.843,68.786,54.619,69.255,54.619,69.255z"/>
<path fill="#C6C7C8" d="M65.032,50.524c-0.519-0.016-1.094,0.182-1.805,1.228c-0.63,0.926-0.803,3.335-1.479,4.235
	c-1.774,2.36-3.93,0.382-3.955-0.853c-0.039-1.889,1.389-1.979,1.819-1.849c0.714,0.216,1.324,1.511,0.492,1.815
	c0.046-0.961-0.988-0.965-1.247-0.569c-0.33,0.502-0.118,1.268,0.691,1.31c0.288,0.014,0.651-0.099,0.885-0.297
	c1.301-1.105,0.002-2.653-1.154-2.856c-1.808-0.319-3.659,2.135-1.984,4.064c0.061,0.044,0.117,0.098,0.164,0.162
	c0.001,0.001,0.001,0.002,0.002,0.003c0.001,0,0.001,0,0.002,0.001c0.051,0.041,0.096,0.089,0.133,0.14
	c0.161,0.146,0.341,0.285,0.548,0.421c0.871,0.566,1.976,0.569,2.919,0.063c0.804-0.432,1.505-0.994,1.796-2.104
	c0.215-0.817,0.25-1.642,0.458-2.448C63.826,51.037,65.032,50.524,65.032,50.524z"/>
<path fill="#C6C7C8" d="M69.452,54.945c0.016,0.519-0.183,1.094-1.229,1.805c-0.926,0.629-3.336,0.802-4.236,1.479
	c-2.36,1.773-0.383,3.929,0.852,3.955c1.889,0.041,1.98-1.388,1.851-1.818c-0.217-0.715-1.511-1.325-1.816-0.492
	c0.961-0.046,0.966,0.988,0.569,1.247c-0.502,0.329-1.268,0.117-1.31-0.691c-0.014-0.288,0.098-0.651,0.297-0.885
	c1.105-1.3,2.654-0.001,2.855,1.155c0.318,1.808-2.136,3.659-4.064,1.983c-0.044-0.061-0.098-0.117-0.161-0.164
	c-0.001,0-0.002-0.001-0.004-0.002c0,0,0-0.001-0.001-0.002c-0.041-0.051-0.089-0.096-0.14-0.133
	c-0.146-0.161-0.284-0.342-0.42-0.549c-0.567-0.87-0.569-1.976-0.062-2.919c0.431-0.804,0.994-1.504,2.104-1.795
	c0.817-0.214,1.642-0.25,2.449-0.457C68.939,56.151,69.452,54.945,69.452,54.945z"/>
<path fill="#C6C7C8" d="M1.986,34.293c-0.334-0.059-0.634-0.044-0.935,0.115c-0.296,0.158-0.574,0.367-0.77,0.641
	c-0.113,0.161-0.194,0.337-0.255,0.521v1.317c0.509-0.197,0.993-0.541,1.155-1.081c0.045-0.147,0.074-0.302,0.108-0.453
	c0.001-0.003,0.002-0.008,0.004-0.012c0.016-0.068,0.034-0.136,0.053-0.202c0-0.001,0-0.003,0.001-0.004
	c0.021-0.073,0.049-0.145,0.082-0.213c0.182-0.373,0.396-0.487,0.489-0.542c0.076-0.042,0.099-0.058,0.108-0.07
	C2.035,34.301,1.997,34.294,1.986,34.293z M1.042,35.044c-0.093,0.16-0.182,0.325-0.247,0.5c-0.056,0.152-0.087,0.314-0.151,0.462
	c-0.059,0.139-0.135,0.293-0.262,0.382c-0.071,0.051-0.158,0.095-0.249,0.084c0-0.002,0.001-0.002,0.001-0.003
	c0.214-0.267,0.176-0.607,0.321-0.903c0.086-0.182,0.212-0.339,0.369-0.467c0.089-0.072,0.179-0.134,0.285-0.179
	C1.122,34.916,1.044,35.042,1.042,35.044z"/>
<path fill="#C6C7C8" d="M1.519,33.069c0.418,0.022,0.92-0.148,1.03-0.572c0.03-0.127,0.025-0.274-0.021-0.417
	c-0.079-0.251-0.264-0.444-0.494-0.517c-0.227-0.07-0.448-0.032-0.604,0.105c-0.153,0.13-0.214,0.326-0.16,0.498
	c0.02,0.065,0.056,0.123,0.104,0.168c-0.141-0.066-0.231-0.178-0.268-0.294c-0.044-0.141-0.019-0.293,0.074-0.429
	c0.231-0.338,0.773-0.312,1.162-0.091c0.409,0.233,0.786,0.684,0.916,1.094c0.015,0.049,0.026,0.099,0.034,0.147
	c0.097,0.551-0.309,1.014-0.665,1.424c-0.073,0.085-0.146,0.168-0.21,0.248c-0.521,0.646-0.856,1.339-0.998,2.044
	c-0.35,0.509-0.588,1.117-0.686,1.771c-0.036,0.241-0.045,0.483-0.04,0.724c0.001,0.062-0.001,0.125,0.002,0.187
	c0.002,0.031,0.009,0.061,0.013,0.091c0.057,0.008,0.114,0.019,0.17,0.023c0.02,0.001,0.04,0,0.061,0
	c0.281,0.015,0.566,0.003,0.851-0.039c0.654-0.098,1.261-0.336,1.771-0.686c0.705-0.142,1.399-0.478,2.044-0.999
	c0.08-0.063,0.163-0.137,0.248-0.209c0.41-0.356,0.874-0.762,1.424-0.666c0.048,0.008,0.098,0.02,0.146,0.035
	c0.411,0.13,0.861,0.506,1.094,0.916c0.221,0.389,0.247,0.93-0.091,1.162c-0.135,0.091-0.288,0.118-0.428,0.073
	c-0.116-0.036-0.228-0.126-0.294-0.268c0.046,0.049,0.104,0.084,0.168,0.104c0.172,0.054,0.368-0.007,0.498-0.16
	c0.137-0.156,0.175-0.377,0.105-0.604c-0.072-0.23-0.265-0.415-0.517-0.494c-0.143-0.046-0.289-0.052-0.417-0.02
	c-0.424,0.11-0.594,0.611-0.572,1.029c0.024,0.482,0.308,0.866,0.734,1c0.467,0.148,1.051-0.033,1.261-0.669
	c0.275-0.832-0.032-1.801-0.745-2.354C8.042,36.29,7.832,36.18,7.61,36.109c-0.422-0.133-0.802-0.102-1.069,0.083
	c0.024-0.409-0.106-0.809-0.373-1.137c-0.216-0.267-0.522-0.367-0.928-0.319c0.03-0.373-0.072-0.66-0.324-0.864
	c-0.329-0.267-0.728-0.396-1.137-0.373c0.185-0.267,0.215-0.647,0.083-1.069c-0.071-0.223-0.181-0.433-0.32-0.611
	c-0.553-0.713-1.521-1.02-2.353-0.745c-0.636,0.21-0.817,0.794-0.669,1.261C0.653,32.762,1.037,33.044,1.519,33.069z M1.928,38.853
	c-0.265,0.04-0.541,0.041-0.824,0.014c-0.02-0.258-0.022-0.512,0.014-0.755c0.042-0.274,0.117-0.542,0.222-0.789
	c0.005,0.294,0.053,0.588,0.125,0.879c0.018,0.071,0.029,0.143,0.05,0.213c0.032,0.012,0.063,0.027,0.095,0.037
	c0.041,0.013,0.082,0.018,0.123,0.029c0.325,0.091,0.654,0.145,0.983,0.15C2.469,38.737,2.202,38.812,1.928,38.853z M5.138,34.931
	l0.071,0.055c0.368,0.58,0.346,1.127-0.077,1.754c-0.597,0.885-1.714,1.272-2.826,0.996c0.001,0,0.002-0.001,0.004-0.002
	c-0.031-0.004-0.062-0.017-0.092-0.023c-0.135-0.387-0.148-0.807-0.023-1.197c0.123-0.654,0.482-1.232,1.036-1.605
	C3.913,34.448,4.501,34.456,5.138,34.931z"/>
<path fill="#C6C7C8" d="M1.99,45.644c-0.094-0.055-0.308-0.169-0.489-0.542c-0.033-0.068-0.06-0.141-0.082-0.213
	c-0.001,0-0.001-0.003-0.002-0.004c-0.019-0.066-0.036-0.134-0.053-0.202c-0.001-0.004-0.002-0.009-0.003-0.012
	c-0.034-0.151-0.063-0.305-0.109-0.453c-0.167-0.552-0.668-0.901-1.19-1.095c-0.012,0.004-0.023,0.01-0.034,0.014v1.317
	c0.01-0.032,0.025-0.061,0.034-0.093c0.06,0.219,0.157,0.427,0.289,0.615c0.196,0.274,0.474,0.483,0.77,0.642
	c0.301,0.159,0.601,0.173,0.935,0.115c0.011-0.001,0.048-0.007,0.042-0.017C2.088,45.702,2.065,45.687,1.99,45.644z M0.893,44.924
	c-0.156-0.127-0.281-0.284-0.368-0.466c-0.145-0.296-0.108-0.637-0.321-0.904c0-0.001-0.001-0.001-0.002-0.003
	c0.092-0.011,0.179,0.033,0.25,0.083c0.126,0.09,0.203,0.244,0.261,0.383c0.064,0.148,0.096,0.311,0.152,0.463
	c0.065,0.174,0.153,0.339,0.247,0.499c0.002,0.002,0.079,0.129,0.067,0.125C1.072,45.058,0.982,44.996,0.893,44.924z"/>
<path fill="#C6C7C8" d="M5.631,38.919c0.16-0.3,0.174-0.6,0.115-0.935c-0.001-0.011-0.007-0.048-0.017-0.042
	c-0.012,0.009-0.028,0.031-0.07,0.107c-0.055,0.094-0.169,0.308-0.542,0.489c-0.068,0.033-0.141,0.06-0.213,0.082
	c-0.001,0.001-0.003,0.001-0.004,0.002c-0.066,0.019-0.134,0.036-0.202,0.053c-0.004,0.001-0.009,0.002-0.012,0.003
	c-0.151,0.034-0.306,0.063-0.453,0.109c-0.553,0.167-0.901,0.668-1.095,1.19c0.194,0.521,0.542,1.023,1.095,1.189
	c0.147,0.045,0.302,0.074,0.453,0.108c0.003,0.001,0.008,0.002,0.012,0.004c0.068,0.017,0.136,0.034,0.202,0.053
	c0.001,0.001,0.003,0.001,0.004,0.001c0.073,0.022,0.145,0.049,0.213,0.083c0.373,0.181,0.487,0.395,0.542,0.488
	c0.042,0.076,0.058,0.099,0.07,0.108c0.01,0.006,0.016-0.031,0.017-0.042c0.059-0.334,0.044-0.634-0.115-0.934
	c-0.158-0.296-0.367-0.574-0.641-0.77c-0.188-0.133-0.396-0.229-0.615-0.289c0.219-0.06,0.427-0.157,0.615-0.289
	C5.264,39.492,5.473,39.215,5.631,38.919z M4.473,40.441c0.182,0.086,0.339,0.212,0.467,0.369c0.072,0.089,0.134,0.178,0.179,0.285
	c0.005,0.012-0.122-0.065-0.124-0.068c-0.16-0.092-0.325-0.181-0.5-0.246c-0.152-0.056-0.314-0.087-0.462-0.151
	c-0.139-0.059-0.293-0.135-0.382-0.261c-0.051-0.071-0.095-0.158-0.084-0.25c0.002,0,0.002,0.001,0.003,0.001
	C3.836,40.333,4.177,40.296,4.473,40.441z M4.473,39.515c-0.296,0.145-0.637,0.108-0.903,0.321c-0.001,0-0.001,0.001-0.003,0.002
	c-0.01-0.092,0.034-0.179,0.084-0.25c0.09-0.126,0.244-0.203,0.383-0.261c0.148-0.064,0.311-0.096,0.462-0.152
	c0.175-0.065,0.34-0.153,0.5-0.247c0.002-0.002,0.129-0.079,0.124-0.067c-0.046,0.106-0.107,0.196-0.179,0.286
	C4.812,39.303,4.654,39.428,4.473,39.515z"/>
<path fill="#C6C7C8" d="M8.966,41.173c-0.21-0.636-0.794-0.817-1.261-0.67c-0.427,0.134-0.71,0.519-0.734,1
	c-0.022,0.418,0.148,0.919,0.572,1.03c0.127,0.031,0.274,0.025,0.417-0.021c0.251-0.079,0.444-0.264,0.517-0.495
	c0.07-0.226,0.032-0.447-0.105-0.604c-0.13-0.153-0.326-0.214-0.498-0.16c-0.065,0.021-0.123,0.056-0.168,0.104
	c0.066-0.141,0.178-0.232,0.294-0.268c0.141-0.044,0.293-0.019,0.428,0.074c0.338,0.232,0.312,0.773,0.091,1.162
	c-0.233,0.409-0.684,0.786-1.094,0.916c-0.049,0.015-0.099,0.026-0.146,0.034c-0.551,0.097-1.014-0.31-1.424-0.665
	c-0.085-0.073-0.168-0.146-0.248-0.209c-0.646-0.521-1.339-0.856-2.044-0.998c-0.509-0.351-1.117-0.589-1.771-0.687
	c-0.241-0.036-0.483-0.045-0.724-0.04C1.003,40.68,0.94,40.677,0.878,40.68c-0.031,0.002-0.061,0.009-0.091,0.013
	c-0.008,0.057-0.019,0.114-0.023,0.17c-0.001,0.02,0,0.041,0,0.061c-0.015,0.281-0.003,0.567,0.039,0.851
	c0.098,0.654,0.336,1.262,0.686,1.771c0.142,0.705,0.478,1.399,0.999,2.044c0.063,0.08,0.137,0.163,0.209,0.248
	c0.356,0.411,0.762,0.874,0.666,1.425c-0.008,0.048-0.02,0.097-0.035,0.146c-0.13,0.411-0.506,0.86-0.916,1.094
	c-0.389,0.221-0.93,0.247-1.162-0.091c-0.091-0.136-0.118-0.288-0.073-0.428c0.036-0.117,0.126-0.228,0.268-0.294
	c-0.049,0.046-0.084,0.104-0.104,0.168c-0.054,0.172,0.007,0.368,0.16,0.498c0.156,0.137,0.377,0.175,0.604,0.105
	c0.23-0.072,0.415-0.265,0.494-0.517c0.046-0.143,0.052-0.289,0.02-0.417c-0.11-0.424-0.611-0.594-1.029-0.572
	c-0.482,0.025-0.866,0.308-1,0.734c-0.148,0.467,0.033,1.051,0.669,1.261c0.832,0.275,1.801-0.031,2.354-0.745
	c0.138-0.179,0.248-0.389,0.318-0.611c0.134-0.421,0.102-0.802-0.082-1.069c0.409,0.023,0.809-0.106,1.137-0.373
	c0.267-0.216,0.367-0.522,0.319-0.927c0.373,0.03,0.659-0.072,0.864-0.325c0.267-0.329,0.396-0.728,0.373-1.137
	c0.267,0.185,0.647,0.215,1.069,0.083c0.223-0.071,0.433-0.181,0.612-0.32C8.935,42.974,9.241,42.005,8.966,41.173z M1.409,42.702
	c-0.106-0.248-0.181-0.515-0.222-0.789c-0.04-0.264-0.041-0.541-0.014-0.824c0.258-0.02,0.512-0.022,0.755,0.014
	c0.274,0.041,0.541,0.117,0.789,0.223c-0.294,0.004-0.588,0.052-0.879,0.125c-0.071,0.017-0.143,0.028-0.213,0.05
	c-0.012,0.031-0.027,0.062-0.037,0.095c-0.013,0.041-0.018,0.083-0.029,0.123C1.468,42.043,1.414,42.373,1.409,42.702z
	 M5.109,45.123l-0.055,0.072c-0.58,0.367-1.127,0.346-1.754-0.077c-0.885-0.597-1.272-1.714-0.996-2.826
	c0,0.001,0.001,0.003,0.002,0.004c0.004-0.031,0.017-0.062,0.023-0.092c0.387-0.135,0.807-0.148,1.197-0.023
	c0.654,0.123,1.231,0.482,1.605,1.037C5.592,43.898,5.584,44.486,5.109,45.123z"/>
<path fill="#C6C7C8" d="M80.027,35.571c-0.01,0.032-0.025,0.061-0.034,0.093c-0.06-0.219-0.157-0.427-0.289-0.615
	c-0.197-0.274-0.474-0.483-0.77-0.641c-0.3-0.16-0.6-0.174-0.935-0.115c-0.011,0.001-0.048,0.007-0.042,0.017
	c0.009,0.012,0.032,0.028,0.107,0.07c0.094,0.055,0.308,0.169,0.489,0.542c0.033,0.068,0.06,0.141,0.082,0.213
	c0.001,0.001,0.001,0.003,0.002,0.004c0.019,0.066,0.036,0.134,0.054,0.202c0.001,0.004,0.002,0.009,0.002,0.012
	c0.035,0.151,0.063,0.306,0.109,0.453c0.167,0.552,0.668,0.901,1.19,1.095c0.011-0.004,0.022-0.01,0.034-0.014V35.571z
	 M79.603,36.39c-0.126-0.09-0.204-0.244-0.261-0.383c-0.064-0.148-0.096-0.311-0.152-0.462c-0.065-0.175-0.153-0.34-0.247-0.5
	c-0.001-0.002-0.079-0.128-0.067-0.124c0.107,0.046,0.196,0.107,0.286,0.179c0.156,0.128,0.281,0.285,0.368,0.467
	c0.145,0.296,0.108,0.637,0.321,0.903c0,0.001,0.001,0.001,0.002,0.003C79.761,36.484,79.674,36.44,79.603,36.39z"/>
<path fill="#C6C7C8" d="M74.424,41.105c-0.159,0.301-0.174,0.601-0.115,0.936c0.001,0.011,0.007,0.048,0.017,0.041
	c0.013-0.008,0.028-0.032,0.07-0.107c0.055-0.093,0.169-0.308,0.542-0.489c0.068-0.033,0.141-0.06,0.213-0.082
	c0.001-0.001,0.003-0.001,0.004-0.002c0.066-0.019,0.134-0.036,0.202-0.053c0.004-0.002,0.009-0.002,0.012-0.003
	c0.151-0.034,0.305-0.063,0.453-0.108c0.553-0.167,0.901-0.668,1.095-1.19c-0.194-0.521-0.542-1.023-1.095-1.189
	c-0.148-0.045-0.302-0.074-0.453-0.108c-0.003-0.001-0.007-0.002-0.012-0.004c-0.068-0.016-0.136-0.034-0.202-0.053
	c-0.001,0-0.003,0-0.004-0.001c-0.073-0.021-0.145-0.049-0.213-0.082c-0.373-0.182-0.487-0.396-0.542-0.489
	c-0.042-0.076-0.058-0.099-0.07-0.108c-0.01-0.006-0.016,0.031-0.017,0.042c-0.059,0.334-0.044,0.634,0.115,0.935
	c0.158,0.296,0.367,0.574,0.641,0.77c0.188,0.133,0.396,0.229,0.615,0.289c-0.219,0.06-0.426,0.157-0.615,0.29
	C74.791,40.532,74.582,40.81,74.424,41.105z M75.582,39.584c-0.182-0.087-0.339-0.212-0.467-0.369
	c-0.072-0.089-0.134-0.179-0.179-0.285c-0.005-0.012,0.122,0.065,0.124,0.067c0.16,0.093,0.325,0.182,0.5,0.247
	c0.152,0.056,0.314,0.087,0.462,0.151c0.139,0.058,0.294,0.135,0.383,0.262c0.051,0.071,0.094,0.158,0.084,0.249
	c-0.002,0-0.002-0.001-0.003-0.001C76.219,39.691,75.878,39.729,75.582,39.584z M75.582,40.51c0.296-0.145,0.637-0.107,0.903-0.321
	c0.001,0,0.001-0.001,0.003-0.002c0.01,0.092-0.033,0.179-0.083,0.25c-0.09,0.126-0.245,0.204-0.383,0.261
	c-0.148,0.064-0.311,0.096-0.462,0.152c-0.175,0.064-0.34,0.153-0.5,0.246c-0.002,0.001-0.129,0.079-0.124,0.067
	c0.046-0.106,0.107-0.196,0.179-0.286C75.243,40.721,75.4,40.596,75.582,40.51z"/>
<path fill="#C6C7C8" d="M72.35,39.521c0.427-0.134,0.709-0.518,0.734-1c0.022-0.418-0.147-0.92-0.572-1.03
	c-0.127-0.03-0.274-0.025-0.417,0.021c-0.251,0.079-0.444,0.264-0.517,0.494c-0.07,0.227-0.032,0.448,0.105,0.604
	c0.13,0.153,0.326,0.215,0.498,0.16c0.065-0.02,0.123-0.056,0.168-0.104c-0.066,0.141-0.178,0.231-0.294,0.268
	c-0.14,0.044-0.293,0.019-0.428-0.074c-0.338-0.231-0.312-0.773-0.091-1.162c0.234-0.409,0.684-0.786,1.094-0.916
	c0.049-0.015,0.099-0.026,0.146-0.034c0.551-0.097,1.014,0.309,1.424,0.665c0.085,0.073,0.168,0.146,0.248,0.21
	c0.646,0.521,1.339,0.856,2.044,0.998c0.509,0.35,1.117,0.588,1.771,0.686c0.241,0.036,0.484,0.045,0.725,0.04
	c0.062-0.001,0.125,0.001,0.187-0.002c0.03-0.002,0.061-0.009,0.092-0.012c0.007-0.057,0.019-0.114,0.022-0.17
	c0.001-0.02,0-0.041,0-0.061c0.015-0.281,0.003-0.566-0.039-0.851c-0.097-0.654-0.336-1.261-0.686-1.771
	c-0.143-0.705-0.478-1.399-0.999-2.044c-0.064-0.08-0.137-0.163-0.209-0.248c-0.355-0.41-0.762-0.874-0.666-1.424
	c0.008-0.048,0.02-0.098,0.035-0.147c0.13-0.411,0.506-0.86,0.916-1.094c0.389-0.221,0.931-0.247,1.162,0.091
	c0.091,0.135,0.118,0.288,0.073,0.428c-0.036,0.116-0.127,0.228-0.268,0.294c0.049-0.046,0.084-0.104,0.104-0.168
	c0.054-0.172-0.007-0.368-0.16-0.498c-0.156-0.137-0.377-0.175-0.604-0.105c-0.23,0.072-0.416,0.265-0.494,0.517
	c-0.046,0.143-0.052,0.289-0.02,0.417c0.11,0.424,0.611,0.594,1.029,0.572c0.481-0.024,0.865-0.308,1-0.734
	c0.147-0.467-0.033-1.051-0.669-1.261c-0.832-0.275-1.801,0.032-2.354,0.745c-0.138,0.179-0.248,0.389-0.318,0.611
	c-0.134,0.422-0.102,0.802,0.083,1.069c-0.41-0.024-0.809,0.106-1.138,0.373c-0.267,0.216-0.367,0.522-0.319,0.927
	c-0.373-0.029-0.66,0.072-0.864,0.325c-0.267,0.329-0.396,0.728-0.373,1.137c-0.267-0.185-0.647-0.215-1.069-0.083
	c-0.223,0.071-0.433,0.181-0.611,0.32c-0.713,0.553-1.02,1.521-0.745,2.353C71.299,39.487,71.883,39.668,72.35,39.521z
	 M78.646,37.323c0.106,0.248,0.181,0.515,0.222,0.789c0.04,0.265,0.041,0.541,0.014,0.824c-0.258,0.02-0.512,0.022-0.755-0.014
	c-0.274-0.042-0.542-0.117-0.789-0.222c0.294-0.005,0.588-0.053,0.879-0.125c0.07-0.018,0.142-0.029,0.212-0.05
	c0.012-0.032,0.027-0.063,0.037-0.095c0.013-0.041,0.018-0.082,0.029-0.123C78.586,37.981,78.641,37.652,78.646,37.323z
	 M74.946,34.902L75,34.831c0.58-0.368,1.127-0.346,1.755,0.077c0.885,0.597,1.272,1.714,0.996,2.826
	c0-0.001-0.001-0.002-0.002-0.004c-0.005,0.031-0.017,0.062-0.024,0.092c-0.387,0.135-0.807,0.148-1.197,0.023
	c-0.653-0.123-1.231-0.482-1.605-1.036C74.462,36.126,74.471,35.538,74.946,34.902z"/>
<path fill="#C6C7C8" d="M80.027,43.136c-0.509,0.197-0.993,0.541-1.156,1.081c-0.045,0.148-0.074,0.302-0.108,0.453
	c-0.001,0.003-0.002,0.008-0.004,0.012c-0.017,0.067-0.034,0.136-0.053,0.202c0,0.001,0,0.004-0.001,0.004
	c-0.022,0.073-0.049,0.145-0.083,0.213c-0.181,0.373-0.396,0.487-0.489,0.542c-0.076,0.042-0.099,0.058-0.107,0.07
	c-0.007,0.01,0.031,0.016,0.041,0.017c0.335,0.059,0.635,0.044,0.936-0.115c0.295-0.158,0.573-0.367,0.769-0.642
	c0.114-0.161,0.195-0.337,0.255-0.521V43.136z M79.599,44.458c-0.087,0.182-0.212,0.338-0.369,0.466
	c-0.089,0.072-0.179,0.134-0.285,0.18c-0.012,0.004,0.065-0.122,0.067-0.124c0.093-0.16,0.182-0.325,0.247-0.5
	c0.056-0.152,0.087-0.314,0.151-0.463c0.059-0.139,0.135-0.293,0.262-0.383c0.071-0.05,0.158-0.094,0.25-0.083
	c0,0.001-0.002,0.001-0.002,0.003C79.707,43.821,79.743,44.162,79.599,44.458z"/>
<path fill="#C6C7C8" d="M78.536,46.956c-0.418-0.022-0.92,0.147-1.03,0.572c-0.03,0.127-0.025,0.274,0.021,0.417
	c0.079,0.251,0.264,0.444,0.494,0.517c0.227,0.07,0.448,0.031,0.604-0.106c0.153-0.13,0.214-0.326,0.16-0.498
	c-0.02-0.065-0.056-0.122-0.104-0.168c0.141,0.066,0.231,0.178,0.268,0.294c0.044,0.14,0.019,0.292-0.074,0.428
	c-0.231,0.338-0.773,0.312-1.162,0.091c-0.409-0.234-0.786-0.683-0.916-1.094c-0.015-0.049-0.026-0.098-0.034-0.146
	c-0.097-0.551,0.309-1.014,0.665-1.425c0.073-0.085,0.146-0.168,0.21-0.248c0.521-0.646,0.855-1.339,0.998-2.044
	c0.35-0.509,0.589-1.117,0.686-1.771c0.036-0.241,0.045-0.484,0.04-0.724c-0.001-0.062,0.001-0.125-0.002-0.187
	c-0.002-0.03-0.009-0.061-0.013-0.091c-0.057-0.008-0.114-0.019-0.17-0.023c-0.02-0.001-0.04,0.001-0.061,0
	c-0.281-0.015-0.566-0.003-0.851,0.039c-0.653,0.098-1.261,0.336-1.771,0.686c-0.705,0.142-1.398,0.478-2.044,0.999
	c-0.08,0.064-0.163,0.137-0.248,0.209c-0.41,0.356-0.874,0.762-1.424,0.666c-0.048-0.008-0.098-0.02-0.146-0.035
	c-0.411-0.13-0.86-0.506-1.094-0.916c-0.221-0.389-0.247-0.931,0.091-1.162c0.135-0.092,0.288-0.118,0.428-0.074
	c0.117,0.036,0.229,0.127,0.294,0.268c-0.046-0.049-0.104-0.084-0.168-0.104c-0.172-0.055-0.368,0.006-0.498,0.159
	c-0.137,0.156-0.175,0.377-0.105,0.604c0.073,0.23,0.265,0.415,0.517,0.494c0.142,0.046,0.289,0.052,0.417,0.02
	c0.424-0.109,0.594-0.611,0.572-1.029c-0.025-0.481-0.308-0.866-0.734-1c-0.467-0.147-1.051,0.034-1.261,0.669
	c-0.275,0.832,0.032,1.801,0.745,2.354c0.179,0.139,0.39,0.249,0.611,0.319c0.422,0.133,0.802,0.102,1.069-0.083
	c-0.024,0.41,0.106,0.809,0.373,1.138c0.216,0.266,0.523,0.367,0.928,0.319c-0.03,0.373,0.072,0.66,0.324,0.864
	c0.329,0.267,0.728,0.396,1.137,0.373c-0.185,0.267-0.215,0.647-0.083,1.068c0.071,0.223,0.181,0.433,0.32,0.612
	c0.553,0.713,1.521,1.02,2.353,0.745c0.636-0.21,0.817-0.794,0.669-1.261C79.402,47.263,79.018,46.98,78.536,46.956z M78.127,41.171
	c0.265-0.04,0.541-0.041,0.824-0.014c0.02,0.258,0.022,0.513-0.014,0.755c-0.041,0.274-0.117,0.542-0.222,0.789
	c-0.005-0.294-0.053-0.588-0.125-0.879c-0.018-0.071-0.029-0.142-0.05-0.212c-0.032-0.012-0.063-0.027-0.095-0.037
	c-0.041-0.013-0.082-0.018-0.123-0.029c-0.324-0.091-0.653-0.146-0.982-0.15C77.585,41.288,77.853,41.212,78.127,41.171z
	 M74.917,45.094l-0.071-0.055c-0.368-0.579-0.346-1.127,0.077-1.755c0.597-0.885,1.714-1.271,2.825-0.996
	c-0.001,0-0.002,0.001-0.003,0.002c0.03,0.005,0.061,0.017,0.092,0.024c0.135,0.387,0.148,0.806,0.023,1.197
	c-0.123,0.653-0.481,1.231-1.036,1.605C76.142,45.577,75.553,45.569,74.917,45.094z"/>
<path fill="#C6C7C8" d="M35.586,0.012c0.031,0.01,0.061,0.025,0.093,0.034c-0.219,0.06-0.426,0.157-0.615,0.29
	c-0.274,0.196-0.483,0.474-0.641,0.769c-0.159,0.301-0.174,0.601-0.115,0.936c0.001,0.011,0.007,0.048,0.017,0.041
	c0.013-0.008,0.028-0.032,0.07-0.107c0.055-0.093,0.169-0.308,0.542-0.489c0.068-0.033,0.141-0.06,0.213-0.082
	c0.001-0.001,0.003-0.001,0.004-0.002c0.066-0.019,0.134-0.036,0.202-0.053c0.004-0.002,0.009-0.002,0.012-0.003
	c0.151-0.034,0.305-0.063,0.453-0.108c0.553-0.167,0.901-0.668,1.095-1.19c-0.004-0.012-0.01-0.023-0.014-0.034H35.586z
	 M36.022,0.698c-0.148,0.064-0.311,0.096-0.462,0.152c-0.175,0.064-0.34,0.153-0.5,0.246c-0.002,0.001-0.129,0.079-0.124,0.067
	c0.046-0.106,0.107-0.196,0.179-0.286c0.127-0.156,0.285-0.281,0.467-0.368c0.296-0.145,0.637-0.107,0.903-0.321
	c0.001,0,0.001-0.001,0.003-0.002c0.01,0.092-0.033,0.179-0.083,0.25C36.315,0.563,36.161,0.64,36.022,0.698z"/>
<path fill="#C6C7C8" d="M42.055,5.731c0.011-0.001,0.048-0.007,0.042-0.017c-0.009-0.012-0.032-0.027-0.107-0.07
	c-0.094-0.055-0.308-0.169-0.489-0.542c-0.033-0.068-0.06-0.141-0.082-0.213c-0.001,0-0.001-0.003-0.002-0.004
	c-0.019-0.066-0.036-0.134-0.054-0.202c-0.001-0.004-0.002-0.009-0.002-0.012c-0.035-0.151-0.063-0.305-0.109-0.453
	c-0.167-0.552-0.668-0.901-1.19-1.095c-0.521,0.194-1.023,0.543-1.19,1.095c-0.045,0.148-0.074,0.302-0.108,0.453
	c-0.001,0.003-0.002,0.008-0.004,0.012c-0.017,0.067-0.034,0.136-0.053,0.202c0,0.001,0,0.004-0.001,0.004
	c-0.022,0.073-0.049,0.145-0.083,0.213c-0.181,0.373-0.396,0.487-0.489,0.542c-0.076,0.042-0.099,0.058-0.107,0.07
	c-0.007,0.01,0.031,0.016,0.041,0.017c0.335,0.059,0.635,0.044,0.936-0.115c0.295-0.158,0.573-0.367,0.769-0.642
	c0.133-0.188,0.229-0.396,0.289-0.615c0.06,0.219,0.157,0.427,0.289,0.615c0.197,0.274,0.474,0.483,0.77,0.642
	C41.421,5.775,41.721,5.79,42.055,5.731z M39.919,3.554c-0.213,0.267-0.176,0.607-0.32,0.904c-0.087,0.182-0.212,0.338-0.369,0.466
	c-0.089,0.072-0.179,0.134-0.285,0.18c-0.012,0.004,0.065-0.122,0.067-0.124c0.093-0.16,0.182-0.325,0.247-0.5
	c0.056-0.152,0.087-0.314,0.151-0.463c0.059-0.139,0.135-0.293,0.262-0.383c0.071-0.05,0.158-0.094,0.25-0.083
	C39.921,3.553,39.919,3.553,39.919,3.554z M40.525,4.458c-0.145-0.296-0.108-0.637-0.321-0.904c0-0.001-0.001-0.001-0.002-0.003
	c0.092-0.011,0.178,0.033,0.25,0.083c0.126,0.09,0.204,0.244,0.261,0.383c0.064,0.148,0.096,0.311,0.152,0.463
	c0.065,0.174,0.153,0.339,0.247,0.499c0.001,0.002,0.079,0.129,0.067,0.125c-0.107-0.046-0.196-0.108-0.286-0.18
	C40.737,4.796,40.612,4.64,40.525,4.458z"/>
<path fill="#C6C7C8" d="M38.536,6.956c-0.418-0.022-0.92,0.147-1.03,0.572c-0.03,0.127-0.025,0.274,0.021,0.417
	c0.079,0.251,0.264,0.444,0.494,0.517c0.227,0.07,0.448,0.031,0.604-0.106c0.153-0.13,0.214-0.326,0.16-0.498
	c-0.02-0.065-0.056-0.122-0.104-0.168c0.141,0.066,0.231,0.178,0.268,0.294c0.044,0.14,0.019,0.292-0.074,0.428
	c-0.231,0.338-0.773,0.312-1.162,0.091c-0.409-0.234-0.786-0.683-0.916-1.094c-0.015-0.049-0.026-0.098-0.034-0.146
	c-0.097-0.551,0.309-1.014,0.665-1.425c0.073-0.085,0.146-0.168,0.21-0.248c0.521-0.646,0.855-1.339,0.998-2.044
	c0.35-0.509,0.589-1.117,0.686-1.771c0.036-0.241,0.045-0.484,0.04-0.724c-0.001-0.062,0.001-0.125-0.002-0.187
	c-0.002-0.03-0.009-0.061-0.013-0.091c-0.057-0.008-0.114-0.019-0.17-0.023c-0.02-0.001-0.04,0.001-0.061,0
	c-0.281-0.015-0.566-0.003-0.851,0.039c-0.653,0.098-1.261,0.336-1.771,0.686c-0.705,0.142-1.398,0.478-2.044,0.999
	c-0.08,0.064-0.163,0.137-0.248,0.209c-0.41,0.356-0.874,0.762-1.424,0.666c-0.048-0.008-0.098-0.02-0.146-0.035
	c-0.411-0.13-0.86-0.506-1.094-0.916c-0.221-0.389-0.247-0.931,0.091-1.162c0.135-0.092,0.288-0.118,0.428-0.074
	c0.117,0.036,0.229,0.127,0.294,0.268c-0.046-0.049-0.104-0.084-0.168-0.104c-0.172-0.055-0.368,0.006-0.498,0.159
	c-0.137,0.156-0.175,0.377-0.105,0.604c0.073,0.23,0.265,0.415,0.517,0.494c0.142,0.046,0.289,0.052,0.417,0.02
	c0.424-0.109,0.594-0.611,0.572-1.029c-0.025-0.481-0.308-0.866-0.734-1c-0.467-0.147-1.051,0.034-1.261,0.669
	c-0.275,0.832,0.032,1.801,0.745,2.354c0.179,0.139,0.39,0.249,0.611,0.319c0.422,0.133,0.802,0.102,1.069-0.083
	c-0.024,0.41,0.106,0.809,0.373,1.138c0.216,0.266,0.523,0.367,0.928,0.319c-0.03,0.373,0.072,0.66,0.324,0.864
	c0.329,0.267,0.728,0.396,1.137,0.373c-0.185,0.267-0.215,0.647-0.083,1.068c0.071,0.223,0.181,0.433,0.32,0.612
	c0.553,0.713,1.521,1.02,2.353,0.745c0.636-0.21,0.817-0.794,0.669-1.261C39.402,7.263,39.018,6.98,38.536,6.956z M38.127,1.171
	c0.265-0.04,0.541-0.041,0.824-0.014c0.02,0.258,0.022,0.513-0.014,0.755c-0.041,0.274-0.117,0.542-0.222,0.789
	c-0.005-0.294-0.053-0.588-0.125-0.879c-0.018-0.071-0.029-0.142-0.05-0.212c-0.032-0.012-0.063-0.027-0.095-0.037
	c-0.041-0.013-0.082-0.018-0.123-0.029c-0.324-0.091-0.653-0.146-0.982-0.15C37.585,1.288,37.853,1.212,38.127,1.171z M34.917,5.094
	l-0.071-0.055C34.478,4.46,34.5,3.912,34.922,3.284c0.597-0.885,1.714-1.271,2.825-0.996c-0.001,0-0.002,0.001-0.003,0.002
	c0.03,0.005,0.061,0.017,0.092,0.024c0.135,0.387,0.148,0.806,0.023,1.197c-0.123,0.653-0.481,1.231-1.036,1.605
	C36.142,5.577,35.553,5.569,34.917,5.094z"/>
<path fill="#C6C7C8" d="M44.99,0.267c-0.161-0.113-0.337-0.194-0.521-0.255h-1.317c0.197,0.509,0.541,0.992,1.081,1.155
	c0.148,0.045,0.302,0.074,0.453,0.108c0.003,0.001,0.007,0.002,0.012,0.004c0.068,0.017,0.136,0.034,0.202,0.053
	c0.001,0.001,0.003,0.001,0.004,0.001c0.073,0.022,0.145,0.049,0.213,0.083c0.373,0.181,0.487,0.395,0.542,0.488
	c0.042,0.076,0.058,0.099,0.07,0.108c0.01,0.006,0.016-0.031,0.017-0.042c0.059-0.334,0.044-0.634-0.115-0.934
	C45.473,0.741,45.264,0.463,44.99,0.267z M44.996,1.027c-0.161-0.092-0.326-0.181-0.5-0.246c-0.152-0.056-0.314-0.087-0.462-0.151
	c-0.139-0.059-0.294-0.135-0.383-0.261c-0.051-0.071-0.094-0.158-0.084-0.25c0.002,0,0.002,0.001,0.003,0.001
	c0.267,0.214,0.607,0.177,0.903,0.321c0.182,0.086,0.339,0.212,0.467,0.369c0.072,0.089,0.134,0.178,0.179,0.285
	C45.124,1.107,44.997,1.029,44.996,1.027z"/>
<path fill="#C6C7C8" d="M48.966,1.173c-0.21-0.636-0.794-0.817-1.261-0.67c-0.427,0.134-0.709,0.519-0.734,1
	c-0.022,0.418,0.147,0.919,0.572,1.03c0.127,0.031,0.274,0.025,0.417-0.021c0.251-0.079,0.444-0.264,0.517-0.495
	c0.07-0.226,0.032-0.447-0.105-0.604c-0.13-0.153-0.326-0.214-0.498-0.16c-0.065,0.021-0.123,0.056-0.168,0.104
	c0.066-0.141,0.178-0.232,0.294-0.268c0.14-0.044,0.293-0.019,0.428,0.074c0.338,0.232,0.312,0.773,0.091,1.162
	c-0.234,0.409-0.684,0.786-1.094,0.916c-0.049,0.015-0.099,0.026-0.146,0.034c-0.551,0.097-1.014-0.31-1.424-0.665
	c-0.085-0.073-0.168-0.146-0.248-0.209c-0.646-0.521-1.339-0.856-2.044-0.998c-0.509-0.351-1.117-0.589-1.771-0.687
	c-0.241-0.036-0.484-0.045-0.725-0.04C41.003,0.68,40.94,0.677,40.878,0.68c-0.03,0.002-0.062,0.009-0.092,0.013
	c-0.007,0.057-0.019,0.114-0.022,0.17c-0.001,0.02,0,0.041,0,0.061c-0.015,0.281-0.003,0.567,0.039,0.851
	c0.097,0.654,0.336,1.262,0.686,1.771c0.143,0.705,0.478,1.399,0.999,2.044c0.064,0.08,0.137,0.163,0.209,0.248
	c0.355,0.411,0.762,0.874,0.666,1.425c-0.008,0.048-0.02,0.097-0.035,0.146c-0.13,0.411-0.506,0.86-0.916,1.094
	c-0.389,0.221-0.93,0.247-1.162-0.091c-0.091-0.136-0.118-0.288-0.073-0.428c0.036-0.117,0.127-0.228,0.268-0.294
	c-0.049,0.046-0.084,0.104-0.104,0.168c-0.054,0.172,0.007,0.368,0.16,0.498c0.156,0.137,0.377,0.175,0.604,0.105
	c0.23-0.072,0.416-0.265,0.494-0.517c0.046-0.143,0.052-0.289,0.02-0.417c-0.11-0.424-0.611-0.594-1.029-0.572
	c-0.481,0.025-0.865,0.308-1,0.734c-0.147,0.467,0.033,1.051,0.669,1.261c0.832,0.275,1.801-0.031,2.354-0.745
	c0.138-0.179,0.248-0.389,0.318-0.611c0.134-0.421,0.102-0.802-0.083-1.069c0.41,0.023,0.809-0.106,1.138-0.373
	c0.267-0.216,0.367-0.522,0.319-0.927c0.373,0.03,0.66-0.072,0.864-0.325c0.267-0.329,0.396-0.728,0.373-1.137
	c0.267,0.185,0.647,0.215,1.069,0.083c0.223-0.071,0.433-0.181,0.611-0.32C48.935,2.974,49.241,2.005,48.966,1.173z M41.409,2.702
	c-0.106-0.248-0.181-0.515-0.222-0.789c-0.04-0.264-0.041-0.541-0.014-0.824c0.258-0.02,0.512-0.022,0.755,0.014
	c0.274,0.041,0.542,0.117,0.789,0.223c-0.294,0.004-0.588,0.052-0.879,0.125c-0.07,0.017-0.142,0.028-0.212,0.05
	c-0.012,0.031-0.027,0.062-0.037,0.095c-0.013,0.041-0.018,0.083-0.029,0.123C41.468,2.043,41.414,2.373,41.409,2.702z
	 M45.109,5.123l-0.055,0.072c-0.58,0.367-1.127,0.346-1.755-0.077c-0.885-0.597-1.272-1.714-0.996-2.826
	c0,0.001,0.001,0.003,0.002,0.004c0.005-0.031,0.017-0.062,0.024-0.092c0.387-0.135,0.807-0.148,1.197-0.023
	c0.653,0.123,1.231,0.482,1.605,1.037C45.592,3.898,45.583,4.486,45.109,5.123z"/>
<path fill="#C6C7C8" d="M38,74.293c-0.011,0.001-0.048,0.007-0.042,0.017c0.009,0.013,0.032,0.028,0.107,0.07
	c0.094,0.054,0.308,0.168,0.489,0.542c0.033,0.068,0.06,0.141,0.082,0.213c0.001,0.001,0.001,0.003,0.002,0.004
	c0.019,0.066,0.036,0.134,0.054,0.202c0.001,0.004,0.002,0.009,0.002,0.012c0.035,0.151,0.063,0.305,0.109,0.453
	c0.167,0.553,0.668,0.902,1.19,1.095c0.521-0.194,1.023-0.542,1.19-1.095c0.045-0.148,0.074-0.302,0.108-0.453
	c0.001-0.003,0.002-0.008,0.004-0.012c0.017-0.068,0.034-0.136,0.053-0.202c0-0.001,0-0.003,0.001-0.004
	c0.022-0.073,0.049-0.145,0.083-0.213c0.181-0.373,0.396-0.487,0.489-0.542c0.076-0.042,0.099-0.058,0.107-0.07
	c0.007-0.01-0.031-0.016-0.041-0.017c-0.335-0.059-0.635-0.044-0.936,0.115c-0.295,0.158-0.573,0.367-0.769,0.641
	c-0.133,0.188-0.229,0.396-0.289,0.615c-0.06-0.219-0.157-0.427-0.289-0.615c-0.197-0.274-0.474-0.483-0.77-0.641
	C38.634,74.25,38.334,74.235,38,74.293z M40.135,76.47c0.213-0.266,0.176-0.607,0.32-0.903c0.087-0.182,0.212-0.34,0.369-0.467
	c0.089-0.072,0.179-0.134,0.285-0.179c0.012-0.005-0.065,0.122-0.067,0.124c-0.093,0.16-0.182,0.325-0.247,0.5
	c-0.056,0.152-0.087,0.314-0.151,0.462c-0.059,0.139-0.135,0.293-0.262,0.383c-0.071,0.05-0.158,0.095-0.25,0.084
	C40.134,76.472,40.135,76.472,40.135,76.47z M39.53,75.567c0.145,0.295,0.108,0.637,0.321,0.903c0,0.001,0.001,0.001,0.002,0.003
	c-0.092,0.011-0.178-0.034-0.25-0.083c-0.126-0.09-0.204-0.245-0.261-0.383c-0.064-0.148-0.096-0.311-0.152-0.462
	c-0.065-0.175-0.153-0.34-0.247-0.5c-0.001-0.001-0.079-0.129-0.067-0.124c0.107,0.046,0.196,0.107,0.286,0.179
	C39.318,75.228,39.443,75.385,39.53,75.567z"/>
<path fill="#C6C7C8" d="M41.519,73.069c0.418,0.022,0.92-0.147,1.03-0.572c0.03-0.127,0.025-0.274-0.021-0.417
	c-0.079-0.251-0.264-0.444-0.494-0.517c-0.227-0.07-0.448-0.032-0.604,0.105c-0.153,0.13-0.214,0.326-0.16,0.498
	c0.02,0.065,0.056,0.123,0.104,0.168c-0.141-0.066-0.231-0.178-0.268-0.294c-0.044-0.14-0.019-0.293,0.074-0.428
	c0.231-0.338,0.773-0.312,1.162-0.091c0.409,0.234,0.786,0.684,0.916,1.094c0.015,0.049,0.026,0.099,0.034,0.147
	c0.097,0.551-0.309,1.014-0.665,1.424c-0.073,0.085-0.146,0.168-0.21,0.248c-0.521,0.646-0.855,1.339-0.998,2.044
	c-0.35,0.51-0.589,1.117-0.686,1.771c-0.036,0.241-0.045,0.483-0.04,0.724c0.001,0.062-0.001,0.125,0.002,0.187
	c0.002,0.03,0.009,0.061,0.013,0.091c0.057,0.007,0.114,0.019,0.17,0.023c0.02,0.001,0.04,0,0.061,0
	c0.281,0.015,0.566,0.003,0.851-0.039c0.653-0.097,1.261-0.336,1.771-0.686c0.705-0.143,1.398-0.478,2.044-0.999
	c0.08-0.063,0.163-0.137,0.248-0.209c0.41-0.356,0.874-0.762,1.424-0.666c0.048,0.008,0.098,0.02,0.146,0.035
	c0.411,0.13,0.86,0.506,1.094,0.916c0.221,0.389,0.247,0.93-0.091,1.162c-0.135,0.091-0.288,0.118-0.428,0.073
	c-0.117-0.036-0.229-0.127-0.294-0.268c0.046,0.049,0.104,0.084,0.168,0.104c0.172,0.055,0.368-0.007,0.498-0.16
	c0.137-0.156,0.175-0.377,0.105-0.604c-0.073-0.23-0.265-0.415-0.517-0.494c-0.142-0.046-0.289-0.052-0.417-0.021
	c-0.424,0.11-0.594,0.611-0.572,1.029c0.025,0.481,0.308,0.866,0.734,1c0.467,0.147,1.051-0.033,1.261-0.669
	c0.275-0.832-0.032-1.801-0.745-2.354c-0.179-0.138-0.39-0.249-0.611-0.318c-0.422-0.134-0.802-0.102-1.069,0.083
	c0.024-0.41-0.106-0.809-0.373-1.138c-0.216-0.267-0.523-0.367-0.928-0.319c0.03-0.373-0.072-0.66-0.324-0.864
	c-0.329-0.267-0.728-0.396-1.137-0.373c0.185-0.267,0.215-0.647,0.083-1.069c-0.071-0.223-0.181-0.433-0.32-0.611
	c-0.553-0.713-1.521-1.019-2.353-0.745c-0.636,0.21-0.817,0.794-0.669,1.261C40.653,72.762,41.037,73.044,41.519,73.069z
	 M41.928,78.853c-0.265,0.04-0.541,0.041-0.824,0.014c-0.02-0.258-0.022-0.512,0.014-0.755c0.041-0.274,0.117-0.542,0.222-0.789
	c0.005,0.294,0.053,0.588,0.125,0.879c0.018,0.07,0.028,0.142,0.05,0.212c0.032,0.013,0.063,0.027,0.095,0.037
	c0.041,0.013,0.082,0.018,0.123,0.029c0.325,0.09,0.654,0.145,0.983,0.15C42.469,78.737,42.202,78.812,41.928,78.853z
	 M45.138,74.931l0.071,0.055c0.368,0.579,0.346,1.127-0.077,1.754c-0.597,0.885-1.714,1.272-2.825,0.996
	c0.001,0,0.002-0.001,0.003-0.002c-0.03-0.005-0.061-0.017-0.092-0.024c-0.135-0.387-0.148-0.807-0.023-1.197
	c0.123-0.653,0.481-1.231,1.036-1.605C43.913,74.447,44.501,74.456,45.138,74.931z"/>
<path fill="#C6C7C8" d="M35.065,79.757c0.157,0.111,0.328,0.195,0.507,0.255h1.332c-0.197-0.509-0.541-0.993-1.081-1.155
	c-0.148-0.045-0.302-0.074-0.453-0.108c-0.003-0.001-0.007-0.002-0.012-0.004c-0.068-0.017-0.136-0.034-0.202-0.054
	c-0.001,0-0.003,0-0.004-0.001c-0.073-0.021-0.145-0.049-0.213-0.082c-0.373-0.181-0.487-0.396-0.542-0.489
	c-0.042-0.076-0.058-0.099-0.07-0.108c-0.01-0.006-0.016,0.031-0.017,0.042c-0.059,0.334-0.044,0.634,0.115,0.935
	C34.582,79.284,34.791,79.562,35.065,79.757z M35.06,78.997c0.16,0.093,0.325,0.182,0.5,0.247c0.152,0.056,0.314,0.087,0.462,0.152
	c0.139,0.058,0.294,0.135,0.383,0.261c0.051,0.071,0.094,0.158,0.084,0.25c-0.002,0-0.002-0.001-0.003-0.001
	c-0.267-0.214-0.607-0.177-0.903-0.321c-0.182-0.087-0.339-0.212-0.467-0.369c-0.072-0.089-0.134-0.179-0.179-0.286
	C34.931,78.918,35.058,78.995,35.06,78.997z"/>
<path fill="#C6C7C8" d="M32.35,79.521c0.427-0.134,0.709-0.519,0.734-1c0.022-0.418-0.147-0.92-0.572-1.03
	c-0.127-0.03-0.274-0.025-0.417,0.021c-0.251,0.079-0.444,0.264-0.517,0.495c-0.07,0.226-0.032,0.448,0.105,0.604
	c0.13,0.153,0.326,0.214,0.498,0.159c0.065-0.02,0.123-0.055,0.168-0.104c-0.066,0.141-0.178,0.232-0.294,0.268
	c-0.14,0.044-0.293,0.019-0.428-0.074c-0.338-0.231-0.312-0.773-0.091-1.162c0.234-0.409,0.684-0.785,1.094-0.916
	c0.049-0.015,0.099-0.026,0.146-0.034c0.551-0.097,1.014,0.309,1.424,0.665c0.085,0.073,0.168,0.146,0.248,0.21
	c0.646,0.521,1.339,0.855,2.044,0.998c0.509,0.35,1.117,0.589,1.771,0.686c0.241,0.036,0.484,0.045,0.725,0.04
	c0.062-0.001,0.125,0.001,0.187-0.002c0.03-0.002,0.061-0.009,0.092-0.013c0.007-0.057,0.019-0.113,0.022-0.169
	c0.001-0.021,0-0.041,0-0.061c0.015-0.281,0.003-0.567-0.039-0.85c-0.097-0.654-0.336-1.261-0.686-1.771
	c-0.143-0.705-0.478-1.399-0.999-2.044c-0.064-0.08-0.137-0.163-0.209-0.248c-0.355-0.41-0.762-0.874-0.666-1.424
	c0.008-0.048,0.02-0.098,0.035-0.147c0.13-0.41,0.506-0.86,0.916-1.094c0.389-0.221,0.931-0.247,1.162,0.091
	c0.091,0.135,0.118,0.288,0.073,0.428c-0.036,0.117-0.127,0.228-0.268,0.294c0.049-0.046,0.084-0.104,0.104-0.168
	c0.054-0.172-0.007-0.368-0.16-0.498c-0.156-0.137-0.377-0.175-0.604-0.105c-0.23,0.073-0.416,0.266-0.494,0.517
	c-0.046,0.142-0.052,0.289-0.02,0.417c0.11,0.424,0.611,0.594,1.029,0.572c0.481-0.024,0.865-0.308,1-0.734
	c0.147-0.467-0.033-1.051-0.669-1.261c-0.832-0.274-1.801,0.032-2.354,0.745c-0.138,0.179-0.248,0.39-0.318,0.611
	c-0.134,0.422-0.102,0.802,0.083,1.069c-0.41-0.024-0.809,0.106-1.138,0.373c-0.267,0.216-0.367,0.522-0.319,0.928
	c-0.373-0.03-0.66,0.072-0.864,0.324c-0.267,0.329-0.396,0.728-0.373,1.138c-0.267-0.185-0.647-0.215-1.069-0.083
	c-0.223,0.071-0.433,0.181-0.611,0.32c-0.713,0.553-1.02,1.521-0.745,2.353C31.299,79.487,31.883,79.668,32.35,79.521z
	 M38.646,77.323c0.106,0.247,0.181,0.514,0.222,0.789c0.04,0.265,0.041,0.541,0.014,0.824c-0.258,0.02-0.512,0.022-0.755-0.013
	c-0.274-0.042-0.542-0.117-0.789-0.223c0.294-0.005,0.588-0.053,0.879-0.125c0.07-0.018,0.142-0.028,0.212-0.05
	c0.012-0.032,0.027-0.063,0.037-0.095c0.013-0.041,0.018-0.082,0.029-0.123C38.586,77.981,38.641,77.652,38.646,77.323z
	 M34.946,74.902L35,74.831c0.58-0.368,1.127-0.346,1.755,0.077c0.885,0.597,1.272,1.714,0.996,2.826
	c0-0.001-0.001-0.002-0.002-0.003c-0.005,0.03-0.017,0.061-0.024,0.092c-0.387,0.134-0.807,0.148-1.197,0.023
	c-0.653-0.124-1.231-0.482-1.605-1.036C34.462,76.126,34.471,75.538,34.946,74.902z"/>
<path fill="#C6C7C8" d="M44.482,80.012c-0.036-0.012-0.071-0.024-0.107-0.034c0.219-0.06,0.426-0.157,0.615-0.289
	c0.274-0.197,0.483-0.474,0.641-0.77c0.159-0.3,0.174-0.6,0.115-0.935c-0.001-0.011-0.007-0.048-0.017-0.041
	c-0.013,0.008-0.028,0.031-0.07,0.106c-0.055,0.093-0.169,0.308-0.542,0.489c-0.068,0.033-0.141,0.06-0.213,0.082
	c-0.001,0.001-0.003,0.001-0.004,0.002c-0.066,0.019-0.134,0.036-0.202,0.054c-0.004,0.001-0.009,0.002-0.012,0.002
	c-0.151,0.035-0.305,0.063-0.453,0.109c-0.553,0.167-0.901,0.667-1.095,1.19c0.004,0.012,0.01,0.023,0.014,0.034H44.482z
	 M44.033,79.327c0.148-0.064,0.311-0.096,0.462-0.152c0.175-0.064,0.34-0.153,0.5-0.247c0.002-0.001,0.129-0.079,0.124-0.067
	c-0.046,0.107-0.107,0.196-0.179,0.286c-0.127,0.156-0.285,0.281-0.467,0.368c-0.296,0.145-0.637,0.108-0.903,0.321
	c-0.001,0-0.001,0.001-0.003,0.002c-0.01-0.092,0.033-0.179,0.083-0.25C43.74,79.461,43.894,79.384,44.033,79.327z"/>
</svg>
