<?xml version="1.0" encoding="utf-8"?>
<!DOCTYPE svg PUBLIC "-//W3C//DTD SVG 1.1//EN" "http://www.w3.org/Graphics/SVG/1.1/DTD/svg11.dtd">
<svg version="1.1" xmlns="http://www.w3.org/2000/svg" xmlns:xlink="http://www.w3.org/1999/xlink" width="800" height="800" viewBox="0 0 800 800">
<radialGradient id="SVGID_1_" cx="400" cy="400" r="562.0938" gradientUnits="userSpaceOnUse">
	<stop  offset="0" style="stop-color:#69008C"/>
	<stop  offset="1" style="stop-color:#986AA9"/>
</radialGradient>
<path fill="url(#SVGID_1_)" d="M400,400L400,400l514.563,232.938l-55.552,96.219L400,400l329.156,459.012l-96.219,55.552L400,400
	L400,400L400,400L400,400L400,400l562.093-55.551v111.104L400,400z M400,400L400,400L400,400L400,400l-514.563,232.937
	l55.552,96.219L400,400L70.844,859.012l96.219,55.552L400,400L400,400l-55.552,562.093h111.104L400,400L400,400z M400,400L400,400
	L400,400L400,400L167.062-114.563L70.844-59.011L400,400L-59.011,70.844l-55.552,96.219L400,400L400,400l-562.093-55.552v111.104
	L400,400L400,400z M400,400L400,400L400,400L400,400l514.564-232.937l-55.552-96.219L400,400L729.156-59.011l-96.219-55.552L400,400
	L400,400l55.552-562.093H344.448L400,400L400,400z"/>
</svg>
